Inter-Italic.ufo
<glyph name="numbersign" format="2">
  <advance width="1776.0"/>
  <unicode hex="0023"/>
  <note>
1. outline
2. slant 9.4 deg
3. remove extra shapes created by outlining
</note>
  <outline>
    <contour>
      <point x="1004.0" y="0.0" type="line"/>
      <point x="1204.0" y="0.0" type="line"/>
      <point x="1576.0" y="2048.0" type="line"/>
      <point x="1376.0" y="2048.0" type="line"/>
    </contour>
    <contour>
      <point x="82.0" y="568.0" type="line"/>
      <point x="1610.0" y="568.0" type="line"/>
      <point x="1646.0" y="768.0" type="line"/>
      <point x="118.0" y="768.0" type="line"/>
    </contour>
    <contour>
      <point x="284.0" y="0.0" type="line"/>
      <point x="484.0" y="0.0" type="line"/>
      <point x="856.0" y="2048.0" type="line"/>
      <point x="656.0" y="2048.0" type="line"/>
    </contour>
    <contour>
      <point x="214.0" y="1280.0" type="line"/>
      <point x="1742.0" y="1280.0" type="line"/>
      <point x="1778.0" y="1480.0" type="line"/>
      <point x="250.0" y="1480.0" type="line"/>
    </contour>
  </outline>
</glyph>
<glyph name="plus" format="2">
  <advance width="1856.0"/>
  <unicode hex="002B"/>
  <guideline x="268.0" y="800.0" angle="0.0"/>
  <outline>
    <contour>
      <point x="712.0" y="140.0" type="line"/>
      <point x="938.0" y="140.0" type="line"/>
      <point x="1156.0" y="1460.0" type="line"/>
      <point x="930.0" y="1460.0" type="line"/>
    </contour>
    <contour>
      <point x="254.0" y="688.0" type="line"/>
      <point x="1574.0" y="688.0" type="line"/>
      <point x="1612.0" y="912.0" type="line"/>
      <point x="292.0" y="912.0" type="line"/>
    </contour>
  </outline>
</glyph>
<glyph name="one" format="2">
  <advance width="1308.0"/>
  <unicode hex="0031"/>
  <outline>
    <contour>
      <point x="1144.0" y="2048.0" type="line"/>
      <point x="896.0" y="2048.0" type="line"/>
      <point x="328.0" y="1708.0" type="line"/>
      <point x="284.0" y="1456.0" type="line"/>
      <point x="840.0" y="1788.0" type="line"/>
      <point x="852.0" y="1788.0" type="line"/>
      <point x="556.0" y="0.0" type="line"/>
      <point x="804.0" y="0.0" type="line"/>
    </contour>
  </outline>
</glyph>
<glyph name="less" format="2">
  <advance width="1856.0"/>
  <unicode hex="003C"/>
  <note>
Recipe: Make rect and rotate 63deg (regular) or 69deg (black)
</note>
  <guideline x="268.0" y="800.0" angle="0.0"/>
  <outline>
    <contour>
      <point x="274.0" y="720.0" type="line"/>
      <point x="1454.0" y="64.0" type="line"/>
      <point x="1498.0" y="320.0" type="line"/>
      <point x="586.0" y="796.0" type="line"/>
      <point x="594.0" y="780.0" type="line"/>
      <point x="598.0" y="820.0" type="line"/>
      <point x="590.0" y="804.0" type="line"/>
      <point x="1658.0" y="1280.0" type="line"/>
      <point x="1698.0" y="1536.0" type="line"/>
      <point x="302.0" y="880.0" type="line"/>
    </contour>
  </outline>
</glyph>
<glyph name="d" format="2">
  <advance width="1752.0"/>
  <unicode hex="0064"/>
  <outline>
    <contour>
      <point x="668.0" y="-32.0" type="curve" smooth="yes"/>
      <point x="963.0" y="-32.0"/>
      <point x="1094.0" y="152.0"/>
      <point x="1160.0" y="236.0" type="curve"/>
      <point x="1188.0" y="236.0" type="line"/>
      <point x="1148.0" y="0.0" type="line"/>
      <point x="1376.0" y="0.0" type="line"/>
      <point x="1716.0" y="2048.0" type="line"/>
      <point x="1480.0" y="2048.0" type="line"/>
      <point x="1354.0" y="1292.0" type="line"/>
      <point x="1334.0" y="1292.0" type="line"/>
      <point x="1296.0" y="1372.0"/>
      <point x="1234.0" y="1556.0"/>
      <point x="934.0" y="1556.0" type="curve" smooth="yes"/>
      <point x="546.0" y="1556.0"/>
      <point x="227.0" y="1248.0"/>
      <point x="146.0" y="764.0" type="curve" smooth="yes"/>
      <point x="66.0" y="276.0"/>
      <point x="283.0" y="-32.0"/>
    </contour>
    <contour>
      <point x="726.0" y="180.0" type="curve" smooth="yes"/>
      <point x="430.0" y="180.0"/>
      <point x="329.0" y="440.0"/>
      <point x="384.0" y="768.0" type="curve" smooth="yes"/>
      <point x="437.0" y="1092.0"/>
      <point x="619.0" y="1344.0"/>
      <point x="918.0" y="1344.0" type="curve" smooth="yes"/>
      <point x="1207.0" y="1344.0"/>
      <point x="1329.0" y="1112.0"/>
      <point x="1272.0" y="768.0" type="curve" smooth="yes"/>
      <point x="1214.0" y="420.0"/>
      <point x="1010.0" y="180.0"/>
    </contour>
  </outline>
</glyph>
<glyph name="y" format="2">
  <advance width="1570.0"/>
  <unicode hex="0079"/>
  <guideline x="1610.0" y="1488.0" angle="90.0"/>
  <outline>
    <contour>
      <point x="146.0" y="-572.0" type="curve" smooth="yes"/>
      <point x="354.0" y="-572.0"/>
      <point x="528.0" y="-465.0"/>
      <point x="658.0" y="-222.0" type="curve" smooth="yes"/>
      <point x="1600.0" y="1536.0" type="line"/>
      <point x="1334.0" y="1536.0" type="line"/>
      <point x="706.0" y="308.0" type="line"/>
      <point x="690.0" y="308.0" type="line"/>
      <point x="470.0" y="1536.0" type="line"/>
      <point x="224.0" y="1536.0" type="line"/>
      <point x="532.0" y="0.0" type="line"/>
      <point x="466.0" y="-120.0" type="line" smooth="yes"/>
      <point x="340.0" y="-349.0"/>
      <point x="238.0" y="-380.0"/>
      <point x="74.0" y="-336.0" type="curve"/>
      <point x="-22.0" y="-544.0" type="line"/>
      <point x="0.0" y="-556.0"/>
      <point x="66.0" y="-572.0"/>
    </contour>
  </outline>
</glyph>
<glyph name="asciitilde" format="2">
  <advance width="1856.0"/>
  <unicode hex="007E"/>
  <outline>
    <contour>
      <point x="204.0" y="608.0" type="curve"/>
      <point x="420.0" y="608.0" type="line"/>
      <point x="448.0" y="784.0"/>
      <point x="536.0" y="852.0"/>
      <point x="644.0" y="852.0" type="curve" smooth="yes"/>
      <point x="716.0" y="852.0"/>
      <point x="770.0" y="830.0"/>
      <point x="854.0" y="746.0" type="curve" smooth="yes"/>
      <point x="980.0" y="620.0"/>
      <point x="1066.0" y="562.0"/>
      <point x="1202.0" y="562.0" type="curve" smooth="yes"/>
      <point x="1406.0" y="562.0"/>
      <point x="1616.0" y="680.0"/>
      <point x="1664.0" y="1012.0" type="curve"/>
      <point x="1448.0" y="1012.0" type="line"/>
      <point x="1424.0" y="852.0"/>
      <point x="1340.0" y="768.0"/>
      <point x="1224.0" y="768.0" type="curve" smooth="yes"/>
      <point x="1152.0" y="768.0"/>
      <point x="1104.0" y="800.0"/>
      <point x="1020.0" y="884.0" type="curve" smooth="yes"/>
      <point x="894.0" y="1010.0"/>
      <point x="804.0" y="1068.0"/>
      <point x="668.0" y="1068.0" type="curve" smooth="yes"/>
      <point x="464.0" y="1068.0"/>
      <point x="256.0" y="940.0"/>
    </contour>
  </outline>
</glyph>
<glyph name="dieresis" format="2">
  <advance width="1664.0"/>
  <unicode hex="00A8"/>
  <outline>
    <contour>
      <point x="726.0" y="1792.0" type="curve" smooth="yes"/>
      <point x="814.0" y="1792.0"/>
      <point x="886.0" y="1860.0"/>
      <point x="898.0" y="1936.0" type="curve" smooth="yes"/>
      <point x="914.0" y="2036.0"/>
      <point x="850.0" y="2112.0"/>
      <point x="750.0" y="2112.0" type="curve" smooth="yes"/>
      <point x="674.0" y="2112.0"/>
      <point x="594.0" y="2052.0"/>
      <point x="582.0" y="1968.0" type="curve" smooth="yes"/>
      <point x="569.0" y="1876.0"/>
      <point x="638.0" y="1792.0"/>
    </contour>
    <contour>
      <point x="1302.0" y="1792.0" type="curve" smooth="yes"/>
      <point x="1390.0" y="1792.0"/>
      <point x="1462.0" y="1860.0"/>
      <point x="1474.0" y="1936.0" type="curve" smooth="yes"/>
      <point x="1490.0" y="2036.0"/>
      <point x="1426.0" y="2112.0"/>
      <point x="1326.0" y="2112.0" type="curve" smooth="yes"/>
      <point x="1250.0" y="2112.0"/>
      <point x="1172.0" y="2052.0"/>
      <point x="1158.0" y="1968.0" type="curve" smooth="yes"/>
      <point x="1142.0" y="1872.0"/>
      <point x="1214.0" y="1792.0"/>
    </contour>
  </outline>
</glyph>
<glyph name="copyright" format="2">
  <advance width="2576.0"/>
  <unicode hex="00A9"/>
  <note>
Stroke R: 116
Stroke B: 160
</note>
  <outline>
    <contour>
      <point x="746.0" y="1024.0" type="curve" smooth="yes"/>
      <point x="692.0" y="696.0"/>
      <point x="914.0" y="430.0"/>
      <point x="1242.0" y="430.0" type="curve" smooth="yes"/>
      <point x="1526.0" y="430.0"/>
      <point x="1778.0" y="630.0"/>
      <point x="1860.0" y="896.0" type="curve"/>
      <point x="1618.0" y="896.0" type="line"/>
      <point x="1566.0" y="760.0"/>
      <point x="1415.0" y="662.0"/>
      <point x="1260.0" y="662.0" type="curve" smooth="yes"/>
      <point x="1061.0" y="662.0"/>
      <point x="948.0" y="837.0"/>
      <point x="978.0" y="1024.0" type="curve" smooth="yes"/>
      <point x="1012.0" y="1237.0"/>
      <point x="1224.0" y="1386.0"/>
      <point x="1420.0" y="1386.0" type="curve" smooth="yes"/>
      <point x="1578.0" y="1386.0"/>
      <point x="1676.0" y="1290.0"/>
      <point x="1680.0" y="1152.0" type="curve"/>
      <point x="1922.0" y="1152.0" type="line"/>
      <point x="1928.0" y="1418.0"/>
      <point x="1722.0" y="1618.0"/>
      <point x="1438.0" y="1618.0" type="curve" smooth="yes"/>
      <point x="1110.0" y="1618.0"/>
      <point x="800.0" y="1352.0"/>
    </contour>
    <component base="circlewhite" xOffset="2.0"/>
  </outline>
</glyph>
<glyph name="registered" format="2">
  <advance width="1888.0"/>
  <unicode hex="00AE"/>
  <note>
Stroke L: 32
Stroke R: 96
Stroke B: 112
</note>
  <outline>
    <contour>
      <point x="692.0" y="916.0" type="line"/>
      <point x="854.0" y="916.0" type="line"/>
      <point x="956.0" y="1534.0" type="line"/>
      <point x="1110.0" y="1534.0" type="line" smooth="yes"/>
      <point x="1147.0" y="1534.0"/>
      <point x="1211.0" y="1508.0"/>
      <point x="1198.0" y="1418.0" type="curve" smooth="yes"/>
      <point x="1185.0" y="1330.0"/>
      <point x="1109.0" y="1286.0"/>
      <point x="1066.0" y="1286.0" type="curve" smooth="yes"/>
      <point x="846.0" y="1286.0" type="line"/>
      <point x="826.0" y="1166.0" type="line"/>
      <point x="1096.0" y="1166.0" type="line" smooth="yes"/>
      <point x="1193.0" y="1166.0"/>
      <point x="1347.0" y="1256.0"/>
      <point x="1376.0" y="1418.0" type="curve" smooth="yes"/>
      <point x="1405.0" y="1578.0"/>
      <point x="1277.0" y="1654.0"/>
      <point x="1188.0" y="1654.0" type="curve" smooth="yes"/>
      <point x="814.0" y="1654.0" type="line"/>
    </contour>
    <contour>
      <point x="1196.0" y="1264.0" type="line"/>
      <point x="1022.0" y="1264.0" type="line"/>
      <point x="1144.0" y="916.0" type="line"/>
      <point x="1322.0" y="916.0" type="line"/>
    </contour>
    <contour>
      <point x="1028.0" y="476.0" type="curve" smooth="yes"/>
      <point x="1469.0" y="476.0"/>
      <point x="1827.0" y="834.0"/>
      <point x="1828.0" y="1276.0" type="curve" smooth="yes"/>
      <point x="1829.0" y="1718.0"/>
      <point x="1469.0" y="2076.0"/>
      <point x="1028.0" y="2076.0" type="curve" smooth="yes"/>
      <point x="585.0" y="2076.0"/>
      <point x="227.0" y="1718.0"/>
      <point x="228.0" y="1276.0" type="curve" smooth="yes"/>
      <point x="229.0" y="834.0"/>
      <point x="585.0" y="476.0"/>
    </contour>
    <contour>
      <point x="1028.0" y="668.0" type="curve" smooth="yes"/>
      <point x="691.0" y="668.0"/>
      <point x="419.0" y="940.0"/>
      <point x="420.0" y="1276.0" type="curve" smooth="yes"/>
      <point x="421.0" y="1612.0"/>
      <point x="691.0" y="1884.0"/>
      <point x="1028.0" y="1884.0" type="curve" smooth="yes"/>
      <point x="1363.0" y="1884.0"/>
      <point x="1635.0" y="1612.0"/>
      <point x="1636.0" y="1276.0" type="curve" smooth="yes"/>
      <point x="1637.0" y="940.0"/>
      <point x="1363.0" y="668.0"/>
    </contour>
  </outline>
</glyph>
<glyph name="degree" format="2">
  <advance width="1280.0"/>
  <unicode hex="00B0"/>
  <outline>
    <contour>
      <point x="778.0" y="1144.0" type="curve" smooth="yes"/>
      <point x="1032.0" y="1144.0"/>
      <point x="1238.0" y="1350.0"/>
      <point x="1238.0" y="1604.0" type="curve" smooth="yes"/>
      <point x="1238.0" y="1858.0"/>
      <point x="1032.0" y="2064.0"/>
      <point x="778.0" y="2064.0" type="curve" smooth="yes"/>
      <point x="524.0" y="2064.0"/>
      <point x="318.0" y="1858.0"/>
      <point x="318.0" y="1604.0" type="curve" smooth="yes"/>
      <point x="318.0" y="1350.0"/>
      <point x="524.0" y="1144.0"/>
    </contour>
    <contour>
      <point x="778.0" y="1344.0" type="curve" smooth="yes"/>
      <point x="634.0" y="1344.0"/>
      <point x="518.0" y="1460.0"/>
      <point x="518.0" y="1604.0" type="curve" smooth="yes"/>
      <point x="518.0" y="1748.0"/>
      <point x="634.0" y="1864.0"/>
      <point x="778.0" y="1864.0" type="curve" smooth="yes"/>
      <point x="922.0" y="1864.0"/>
      <point x="1038.0" y="1748.0"/>
      <point x="1038.0" y="1604.0" type="curve" smooth="yes"/>
      <point x="1038.0" y="1460.0"/>
      <point x="922.0" y="1344.0"/>
    </contour>
  </outline>
</glyph>
<glyph name="plusminus" format="2">
  <advance width="1856.0"/>
  <unicode hex="00B1"/>
  <outline>
    <contour>
      <point x="172.0" y="96.0" type="line"/>
      <point x="1460.0" y="96.0" type="line"/>
      <point x="1496.0" y="320.0" type="line"/>
      <point x="208.0" y="320.0" type="line"/>
    </contour>
    <contour>
      <point x="308.0" y="904.0" type="line"/>
      <point x="1596.0" y="904.0" type="line"/>
      <point x="1632.0" y="1128.0" type="line"/>
      <point x="344.0" y="1128.0" type="line"/>
    </contour>
    <contour>
      <point x="772.0" y="496.0" type="line"/>
      <point x="996.0" y="496.0" type="line"/>
      <point x="1168.0" y="1536.0" type="line"/>
      <point x="944.0" y="1536.0" type="line"/>
    </contour>
  </outline>
</glyph>
<glyph name="multiply" format="2">
  <advance width="1856.0"/>
  <unicode hex="00D7"/>
  <outline>
    <contour>
      <point x="1316.0" y="160.0" type="line"/>
      <point x="1480.0" y="300.0" type="line"/>
      <point x="540.0" y="1428.0" type="line"/>
      <point x="376.0" y="1288.0" type="line"/>
    </contour>
    <contour>
      <point x="362.0" y="164.0" type="line"/>
      <point x="1646.0" y="1260.0" type="line"/>
      <point x="1506.0" y="1424.0" type="line"/>
      <point x="222.0" y="328.0" type="line"/>
    </contour>
  </outline>
</glyph>
<glyph name="divide" format="2">
  <advance width="1856.0"/>
  <unicode hex="00F7"/>
  <outline>
    <contour>
      <point x="1592.0" y="912.0" type="line"/>
      <point x="312.0" y="912.0" type="line"/>
      <point x="276.0" y="688.0" type="line"/>
      <point x="1556.0" y="688.0" type="line"/>
    </contour>
    <contour>
      <point x="832.0" y="104.0" type="curve" smooth="yes"/>
      <point x="920.0" y="104.0"/>
      <point x="1008.0" y="176.0"/>
      <point x="1020.0" y="268.0" type="curve" smooth="yes"/>
      <point x="1034.0" y="373.0"/>
      <point x="964.0" y="460.0"/>
      <point x="864.0" y="460.0" type="curve" smooth="yes"/>
      <point x="768.0" y="460.0"/>
      <point x="684.0" y="388.0"/>
      <point x="672.0" y="300.0" type="curve" smooth="yes"/>
      <point x="657.0" y="191.0"/>
      <point x="724.0" y="104.0"/>
    </contour>
    <contour>
      <point x="1004.0" y="1140.0" type="curve" smooth="yes"/>
      <point x="1092.0" y="1140.0"/>
      <point x="1176.0" y="1212.0"/>
      <point x="1192.0" y="1304.0" type="curve" smooth="yes"/>
      <point x="1210.0" y="1408.0"/>
      <point x="1136.0" y="1496.0"/>
      <point x="1036.0" y="1496.0" type="curve" smooth="yes"/>
      <point x="940.0" y="1496.0"/>
      <point x="856.0" y="1424.0"/>
      <point x="840.0" y="1336.0" type="curve" smooth="yes"/>
      <point x="821.0" y="1229.0"/>
      <point x="896.0" y="1140.0"/>
    </contour>
  </outline>
</glyph>
<glyph name="Nsmallcap" format="2">
  <advance width="1650.0"/>
  <unicode hex="0274"/>
  <outline>
    <contour>
      <point x="1562.0" y="1536.0" type="line"/>
      <point x="1326.0" y="1536.0" type="line"/>
      <point x="1144.0" y="436.0" type="line"/>
      <point x="1124.0" y="436.0" type="line"/>
      <point x="572.0" y="1536.0" type="line"/>
      <point x="344.0" y="1536.0" type="line"/>
      <point x="88.0" y="0.0" type="line"/>
      <point x="324.0" y="0.0" type="line"/>
      <point x="506.0" y="1096.0" type="line"/>
      <point x="526.0" y="1096.0" type="line"/>
      <point x="1074.0" y="0.0" type="line"/>
      <point x="1306.0" y="0.0" type="line"/>
    </contour>
  </outline>
</glyph>
<glyph name="rturnrthook" format="2">
  <advance width="1106.0"/>
  <unicode hex="027B"/>
  <outline>
    <contour>
      <point x="772.0" y="-600.0" type="curve" smooth="yes"/>
      <point x="816.0" y="-600.0"/>
      <point x="876.0" y="-596.0"/>
      <point x="912.0" y="-584.0" type="curve"/>
      <point x="944.0" y="-400.0" type="line"/>
      <point x="920.0" y="-408.0"/>
      <point x="884.0" y="-408.0"/>
      <point x="864.0" y="-408.0" type="curve" smooth="yes"/>
      <point x="709.0" y="-408.0"/>
      <point x="651.0" y="-342.0"/>
      <point x="676.0" y="-192.0" type="curve" smooth="yes"/>
      <point x="708.0" y="0.0" type="line"/>
      <point x="480.0" y="0.0" type="line"/>
      <point x="448.0" y="-192.0" type="line" smooth="yes"/>
      <point x="404.0" y="-455.0"/>
      <point x="548.0" y="-600.0"/>
    </contour>
    <component base="rturn"/>
  </outline>
</glyph>
<glyph name="commareversedmod" format="2">
  <advance width="752.0"/>
  <unicode hex="02BD"/>
  <outline>
    <contour>
      <point x="486.0" y="1364.0" type="curve"/>
      <point x="666.0" y="1364.0" type="line"/>
      <point x="662.0" y="1490.0"/>
      <point x="648.0" y="1760.0"/>
      <point x="666.0" y="2032.0" type="curve" smooth="yes"/>
      <point x="672.0" y="2144.0" type="line"/>
      <point x="416.0" y="2144.0" type="line"/>
      <point x="414.0" y="2036.0" type="line" smooth="yes"/>
      <point x="410.0" y="1808.0"/>
      <point x="462.0" y="1500.0"/>
    </contour>
  </outline>
</glyph>
<glyph name="ringhalfleft" format="2">
  <advance width="496.0"/>
  <unicode hex="02BF"/>
  <outline>
    <contour>
      <point x="518.0" y="1528.0" type="curve"/>
      <point x="538.0" y="1652.0" type="line"/>
      <point x="458.0" y="1652.0"/>
      <point x="408.0" y="1716.0"/>
      <point x="422.0" y="1796.0" type="curve" smooth="yes"/>
      <point x="436.0" y="1884.0"/>
      <point x="508.0" y="1948.0"/>
      <point x="588.0" y="1948.0" type="curve"/>
      <point x="608.0" y="2076.0" type="line"/>
      <point x="452.0" y="2076.0"/>
      <point x="306.0" y="1960.0"/>
      <point x="278.0" y="1796.0" type="curve" smooth="yes"/>
      <point x="252.0" y="1636.0"/>
      <point x="362.0" y="1528.0"/>
    </contour>
  </outline>
</glyph>
<glyph name="arrowheadupmod" format="2">
  <advance width="1264.0"/>
  <unicode hex="02C4"/>
  <outline>
    <contour>
      <point x="902.0" y="804.0" type="line"/>
      <point x="1142.0" y="804.0" type="line"/>
      <point x="898.0" y="1800.0" type="line"/>
      <point x="730.0" y="1800.0" type="line"/>
      <point x="764.0" y="1424.0" type="line"/>
    </contour>
    <contour>
      <point x="134.0" y="804.0" type="line"/>
      <point x="374.0" y="804.0" type="line"/>
      <point x="712.0" y="1424.0" type="line"/>
      <point x="874.0" y="1800.0" type="line"/>
      <point x="710.0" y="1800.0" type="line"/>
    </contour>
  </outline>
</glyph>
<glyph name="caron" format="2">
  <advance width="1280.0"/>
  <unicode hex="02C7"/>
  <guideline x="754.0" y="1720.0" angle="0.0"/>
  <outline>
    <contour>
      <point x="660.0" y="2152.0" type="line"/>
      <point x="436.0" y="2152.0" type="line"/>
      <point x="434.0" y="2136.0" type="line"/>
      <point x="690.0" y="1720.0" type="line"/>
      <point x="906.0" y="1720.0" type="line"/>
      <point x="1298.0" y="2136.0" type="line"/>
      <point x="1300.0" y="2152.0" type="line"/>
      <point x="1076.0" y="2152.0" type="line"/>
      <point x="822.0" y="1872.0" type="line"/>
    </contour>
  </outline>
</glyph>
<glyph name="breve" format="2">
  <advance width="1264.0"/>
  <unicode hex="02D8"/>
  <outline>
    <contour>
      <point x="1040.0" y="2048.0" type="line"/>
      <point x="1022.0" y="1944.0"/>
      <point x="952.0" y="1852.0"/>
      <point x="812.0" y="1852.0" type="curve" smooth="yes"/>
      <point x="672.0" y="1852.0"/>
      <point x="634.0" y="1944.0"/>
      <point x="652.0" y="2048.0" type="curve"/>
      <point x="432.0" y="2048.0" type="line"/>
      <point x="396.0" y="1832.0"/>
      <point x="530.0" y="1680.0"/>
      <point x="782.0" y="1680.0" type="curve" smooth="yes"/>
      <point x="1038.0" y="1680.0"/>
      <point x="1224.0" y="1832.0"/>
      <point x="1260.0" y="2048.0" type="curve"/>
    </contour>
  </outline>
</glyph>
<glyph name="dotaccent" format="2">
  <advance width="672.0"/>
  <unicode hex="02D9"/>
  <outline>
    <contour>
      <point x="532.0" y="1792.0" type="curve" smooth="yes"/>
      <point x="624.0" y="1792.0"/>
      <point x="700.0" y="1864.0"/>
      <point x="700.0" y="1952.0" type="curve" smooth="yes"/>
      <point x="700.0" y="2040.0"/>
      <point x="624.0" y="2112.0"/>
      <point x="532.0" y="2112.0" type="curve" smooth="yes"/>
      <point x="440.0" y="2112.0"/>
      <point x="364.0" y="2040.0"/>
      <point x="364.0" y="1952.0" type="curve" smooth="yes"/>
      <point x="364.0" y="1864.0"/>
      <point x="440.0" y="1792.0"/>
    </contour>
  </outline>
</glyph>
<glyph name="dblgravecmb" format="2">
  <unicode hex="030F"/>
  <outline>
    <contour>
      <point x="-796.0" y="1744.0" type="line"/>
      <point x="-588.0" y="1744.0" type="line"/>
      <point x="-756.0" y="2208.0" type="line"/>
      <point x="-1050.0" y="2208.0" type="line"/>
    </contour>
    <contour>
      <point x="-372.0" y="1744.0" type="line"/>
      <point x="-166.0" y="1744.0" type="line"/>
      <point x="-240.0" y="2208.0" type="line"/>
      <point x="-540.0" y="2208.0" type="line"/>
    </contour>
  </outline>
</glyph>
<glyph name="seagullsubnosp" format="2">
  <unicode hex="033C"/>
  <note>
position under "x".
offset curve settings:
L: 32,32,0%
R: 70,80,0%
B: 110,90,0%
</note>
  <outline>
    <contour>
      <point x="-902.0" y="-514.0" type="line"/>
      <point x="-884.0" y="-404.0"/>
      <point x="-810.0" y="-344.0"/>
      <point x="-698.0" y="-344.0" type="curve" smooth="yes"/>
      <point x="-588.0" y="-344.0"/>
      <point x="-532.0" y="-404.0"/>
      <point x="-550.0" y="-514.0" type="curve"/>
      <point x="-410.0" y="-514.0" type="line"/>
      <point x="-378.0" y="-318.0"/>
      <point x="-478.0" y="-184.0"/>
      <point x="-672.0" y="-184.0" type="curve" smooth="yes"/>
      <point x="-864.0" y="-184.0"/>
      <point x="-1010.0" y="-318.0"/>
      <point x="-1042.0" y="-514.0" type="curve"/>
    </contour>
    <contour>
      <point x="-1394.0" y="-514.0" type="line"/>
      <point x="-1376.0" y="-404.0"/>
      <point x="-1302.0" y="-344.0"/>
      <point x="-1190.0" y="-344.0" type="curve" smooth="yes"/>
      <point x="-1080.0" y="-344.0"/>
      <point x="-1024.0" y="-404.0"/>
      <point x="-1042.0" y="-514.0" type="curve"/>
      <point x="-902.0" y="-514.0" type="line"/>
      <point x="-870.0" y="-318.0"/>
      <point x="-970.0" y="-184.0"/>
      <point x="-1164.0" y="-184.0" type="curve" smooth="yes"/>
      <point x="-1356.0" y="-184.0"/>
      <point x="-1502.0" y="-318.0"/>
      <point x="-1534.0" y="-514.0" type="curve"/>
    </contour>
  </outline>
</glyph>
<glyph name="beta" format="2">
  <advance width="1668.0"/>
  <unicode hex="03B2"/>
  <outline>
    <contour>
      <point x="776.0" y="1184.0" type="line"/>
      <point x="742.0" y="980.0" type="line"/>
      <point x="938.0" y="980.0" type="line" smooth="yes"/>
      <point x="1163.0" y="980.0"/>
      <point x="1275.0" y="788.0"/>
      <point x="1242.0" y="588.0" type="curve" smooth="yes"/>
      <point x="1207.0" y="376.0"/>
      <point x="1016.0" y="192.0"/>
      <point x="756.0" y="192.0" type="curve" smooth="yes"/>
      <point x="508.0" y="192.0"/>
      <point x="384.0" y="360.0"/>
      <point x="416.0" y="556.0" type="curve"/>
      <point x="352.0" y="164.0" type="line"/>
      <point x="368.0" y="172.0" type="line"/>
      <point x="455.0" y="16.0"/>
      <point x="600.0" y="-28.0"/>
      <point x="748.0" y="-28.0" type="curve" smooth="yes"/>
      <point x="1112.0" y="-28.0"/>
      <point x="1420.0" y="240.0"/>
      <point x="1478.0" y="588.0" type="curve" smooth="yes"/>
      <point x="1525.0" y="876.0"/>
      <point x="1396.0" y="1184.0"/>
      <point x="976.0" y="1184.0" type="curve" smooth="yes"/>
    </contour>
    <contour>
      <point x="1040.0" y="2076.0" type="curve" smooth="yes"/>
      <point x="688.0" y="2076.0"/>
      <point x="393.0" y="1840.0"/>
      <point x="340.0" y="1524.0" type="curve"/>
      <point x="-6.0" y="-576.0" type="line"/>
      <point x="230.0" y="-576.0" type="line"/>
      <point x="576.0" y="1524.0" type="line" smooth="yes"/>
      <point x="609.0" y="1720.0"/>
      <point x="800.0" y="1856.0"/>
      <point x="1004.0" y="1856.0" type="curve" smooth="yes"/>
      <point x="1208.0" y="1856.0"/>
      <point x="1345.0" y="1720.0"/>
      <point x="1314.0" y="1536.0" type="curve" smooth="yes"/>
      <point x="1286.0" y="1364.0"/>
      <point x="1123.0" y="1200.0"/>
      <point x="892.0" y="1200.0" type="curve" smooth="yes"/>
      <point x="780.0" y="1200.0" type="line"/>
      <point x="746.0" y="996.0" type="line"/>
      <point x="862.0" y="996.0" type="line" smooth="yes"/>
      <point x="1269.0" y="996.0"/>
      <point x="1505.0" y="1284.0"/>
      <point x="1546.0" y="1536.0" type="curve" smooth="yes"/>
      <point x="1591.0" y="1804.0"/>
      <point x="1420.0" y="2076.0"/>
    </contour>
  </outline>
</glyph>
<glyph name="chi" format="2">
  <advance width="1688.0"/>
  <unicode hex="03C7"/>
  <note>
stroke R: 110, 50%
stroke B: ({Filter="OffsetCurve;250;200;1;0.5;";})
</note>
  <outline>
    <contour>
      <point x="-24.0" y="-576.0" type="line"/>
      <point x="226.0" y="-576.0" type="line"/>
      <point x="802.0" y="262.0" type="line"/>
      <point x="994.0" y="-310.0" type="line" smooth="yes"/>
      <point x="1067.0" y="-532.0"/>
      <point x="1147.0" y="-576.0"/>
      <point x="1376.0" y="-576.0" type="curve" smooth="yes"/>
      <point x="1434.0" y="-576.0" type="line"/>
      <point x="1470.0" y="-356.0" type="line"/>
      <point x="1412.0" y="-356.0" type="line" smooth="yes"/>
      <point x="1276.0" y="-356.0"/>
      <point x="1251.0" y="-347.0"/>
      <point x="1204.0" y="-208.0" type="curve" smooth="yes"/>
      <point x="920.0" y="628.0" type="line"/>
      <point x="810.0" y="628.0" type="line"/>
    </contour>
    <contour>
      <point x="740.0" y="422.0" type="line"/>
      <point x="920.0" y="422.0" type="line"/>
      <point x="1706.0" y="1536.0" type="line"/>
      <point x="1456.0" y="1536.0" type="line"/>
      <point x="882.0" y="716.0" type="line"/>
      <point x="686.0" y="1268.0" type="line" smooth="yes"/>
      <point x="603.0" y="1502.0"/>
      <point x="535.0" y="1552.0"/>
      <point x="308.0" y="1552.0" type="curve" smooth="yes"/>
      <point x="250.0" y="1552.0" type="line"/>
      <point x="212.0" y="1332.0" type="line"/>
      <point x="270.0" y="1332.0" type="line" smooth="yes"/>
      <point x="411.0" y="1332.0"/>
      <point x="418.0" y="1326.0"/>
      <point x="476.0" y="1166.0" type="curve" smooth="yes"/>
    </contour>
  </outline>
</glyph>
<glyph name="zecyrillic" format="2">
  <advance width="1392.0"/>
  <unicode hex="0437"/>
  <note>
stroke L: ({Filter="OffsetCurve;32;32;1;1;";})
</note>
  <outline>
    <contour>
      <point x="58.0" y="392.0" type="line"/>
      <point x="23.0" y="140.0"/>
      <point x="236.0" y="-32.0"/>
      <point x="562.0" y="-32.0" type="curve" smooth="yes"/>
      <point x="899.0" y="-32.0"/>
      <point x="1172.0" y="148.0"/>
      <point x="1218.0" y="428.0" type="curve" smooth="yes"/>
      <point x="1250.0" y="620.0"/>
      <point x="1161.0" y="776.0"/>
      <point x="990.0" y="788.0" type="curve"/>
      <point x="994.0" y="804.0" type="line"/>
      <point x="1146.0" y="849.0"/>
      <point x="1274.0" y="955.0"/>
      <point x="1302.0" y="1128.0" type="curve" smooth="yes"/>
      <point x="1343.0" y="1371.0"/>
      <point x="1165.0" y="1556.0"/>
      <point x="842.0" y="1556.0" type="curve" smooth="yes"/>
      <point x="521.0" y="1556.0"/>
      <point x="264.0" y="1380.0"/>
      <point x="214.0" y="1132.0" type="curve"/>
      <point x="462.0" y="1132.0" type="line"/>
      <point x="491.0" y="1259.0"/>
      <point x="639.0" y="1348.0"/>
      <point x="818.0" y="1348.0" type="curve" smooth="yes"/>
      <point x="998.0" y="1348.0"/>
      <point x="1084.0" y="1257.0"/>
      <point x="1062.0" y="1120.0" type="curve" smooth="yes"/>
      <point x="1040.0" y="992.0"/>
      <point x="936.0" y="896.0"/>
      <point x="750.0" y="896.0" type="curve" smooth="yes"/>
      <point x="486.0" y="896.0" type="line"/>
      <point x="450.0" y="684.0" type="line"/>
      <point x="714.0" y="684.0" type="line" smooth="yes"/>
      <point x="901.0" y="684.0"/>
      <point x="1004.0" y="581.0"/>
      <point x="978.0" y="428.0" type="curve" smooth="yes"/>
      <point x="950.0" y="253.0"/>
      <point x="783.0" y="180.0"/>
      <point x="594.0" y="180.0" type="curve" smooth="yes"/>
      <point x="409.0" y="180.0"/>
      <point x="297.0" y="253.0"/>
      <point x="310.0" y="392.0" type="curve"/>
    </contour>
  </outline>
</glyph>
<glyph name="uni1DFF" format="2">
  <unicode hex="1DFF"/>
  <outline>
    <contour>
      <point x="-596.0" y="-744.0" type="line"/>
      <point x="-432.0" y="-744.0" type="line"/>
      <point x="86.0" y="-96.0" type="line"/>
      <point x="-138.0" y="-96.0" type="line"/>
      <point x="-448.0" y="-500.0" type="line"/>
    </contour>
    <contour>
      <point x="-1952.0" y="-748.0" type="line"/>
      <point x="-908.0" y="-480.0" type="line"/>
      <point x="-892.0" y="-376.0" type="line"/>
      <point x="-1276.0" y="-424.0" type="line"/>
      <point x="-1926.0" y="-580.0" type="line"/>
    </contour>
    <contour>
      <point x="-906.0" y="-468.0" type="line"/>
      <point x="-888.0" y="-360.0" type="line"/>
      <point x="-1846.0" y="-96.0" type="line"/>
      <point x="-1872.0" y="-264.0" type="line"/>
      <point x="-1274.0" y="-420.0" type="line"/>
    </contour>
    <contour>
      <point x="-620.0" y="-744.0" type="line"/>
      <point x="-456.0" y="-744.0" type="line"/>
      <point x="-528.0" y="-500.0" type="line"/>
      <point x="-698.0" y="-96.0" type="line"/>
      <point x="-922.0" y="-96.0" type="line"/>
    </contour>
  </outline>
</glyph>
<glyph name="uni1FBE" format="2">
  <advance width="752.0"/>
  <unicode hex="1FBE"/>
  <note>
similar or identical to iotasubnosp
</note>
  <outline>
    <contour>
      <point x="200.0" y="-680.0" type="curve" smooth="yes"/>
      <point x="252.0" y="-680.0"/>
      <point x="286.0" y="-672.0"/>
      <point x="306.0" y="-664.0" type="curve"/>
      <point x="330.0" y="-524.0" type="line"/>
      <point x="318.0" y="-524.0"/>
      <point x="290.0" y="-528.0"/>
      <point x="270.0" y="-528.0" type="curve" smooth="yes"/>
      <point x="230.0" y="-528.0"/>
      <point x="206.0" y="-500.0"/>
      <point x="220.0" y="-420.0" type="curve" smooth="yes"/>
      <point x="268.0" y="-120.0" type="line"/>
      <point x="60.0" y="-120.0" type="line"/>
      <point x="10.0" y="-424.0" type="line" smooth="yes"/>
      <point x="-20.0" y="-604.0"/>
      <point x="64.0" y="-680.0"/>
    </contour>
  </outline>
</glyph>
<glyph name="uni1FFD" format="2">
  <advance width="752.0"/>
  <unicode hex="1FFD"/>
  <outline>
    <contour>
      <point x="458.0" y="1728.0" type="line"/>
      <point x="586.0" y="1728.0" type="line"/>
      <point x="976.0" y="2168.0" type="line"/>
      <point x="980.0" y="2196.0" type="line"/>
      <point x="688.0" y="2196.0" type="line"/>
      <point x="462.0" y="1752.0" type="line"/>
    </contour>
  </outline>
</glyph>
<glyph name="figuredash" format="2">
  <advance width="1784.0"/>
  <unicode hex="2012"/>
  <guideline x="1102.0" y="878.0" angle="0.0"/>
  <outline>
    <contour>
      <point x="1820.0" y="988.0" type="line"/>
      <point x="36.0" y="988.0" type="line"/>
      <point x="0.0" y="768.0" type="line"/>
      <point x="1784.0" y="768.0" type="line"/>
    </contour>
  </outline>
</glyph>
<glyph name="bullet" format="2">
  <advance width="1280.0"/>
  <unicode hex="2022"/>
  <outline>
    <contour>
      <point x="590.0" y="376.0" type="curve" smooth="yes"/>
      <point x="826.0" y="376.0"/>
      <point x="1047.0" y="561.0"/>
      <point x="1086.0" y="800.0" type="curve" smooth="yes"/>
      <point x="1126.0" y="1047.0"/>
      <point x="955.0" y="1256.0"/>
      <point x="706.0" y="1256.0" type="curve" smooth="yes"/>
      <point x="470.0" y="1256.0"/>
      <point x="250.0" y="1070.0"/>
      <point x="210.0" y="832.0" type="curve" smooth="yes"/>
      <point x="168.0" y="583.0"/>
      <point x="340.0" y="376.0"/>
    </contour>
  </outline>
</glyph>
<glyph name="trianglebullet" format="2">
  <advance width="1584.0"/>
  <unicode hex="2023"/>
  <outline>
    <contour>
      <point x="396.0" y="368.0" type="line"/>
      <point x="1210.0" y="816.0" type="line"/>
      <point x="544.0" y="1264.0" type="line"/>
    </contour>
  </outline>
</glyph>
<glyph name="hyphenbullet" format="2">
  <advance width="1280.0"/>
  <unicode hex="2043"/>
  <outline>
    <contour>
      <point x="1034.0" y="926.0" type="line"/>
      <point x="298.0" y="926.0" type="line"/>
      <point x="262.0" y="706.0" type="line"/>
      <point x="998.0" y="706.0" type="line"/>
    </contour>
  </outline>
</glyph>
<glyph name="paragraphreversed" format="2">
  <advance width="1688.0"/>
  <unicode hex="204B"/>
  <outline>
    <contour>
      <point x="742.0" y="760.0" type="line"/>
      <point x="858.0" y="760.0" type="line" smooth="yes"/>
      <point x="1294.0" y="760.0"/>
      <point x="1580.0" y="1032.0"/>
      <point x="1642.0" y="1404.0" type="curve" smooth="yes"/>
      <point x="1702.0" y="1772.0"/>
      <point x="1508.0" y="2048.0"/>
      <point x="1072.0" y="2048.0" type="curve" smooth="yes"/>
      <point x="460.0" y="2048.0" type="line"/>
      <point x="424.0" y="1828.0" type="line"/>
      <point x="920.0" y="1828.0" type="line"/>
    </contour>
    <contour>
      <point x="120.0" y="0.0" type="line"/>
      <point x="368.0" y="0.0" type="line"/>
      <point x="708.0" y="2048.0" type="line"/>
      <point x="460.0" y="2048.0" type="line"/>
    </contour>
  </outline>
</glyph>
<glyph name="blackleftbullet" format="2">
  <advance width="1664.0"/>
  <unicode hex="204C"/>
  <note>
Based on paragraph. Slightly shorter.
</note>
  <outline>
    <contour>
      <point x="746.0" y="232.0" type="curve" smooth="yes"/>
      <point x="1358.0" y="232.0" type="line"/>
      <point x="1394.0" y="452.0" type="line"/>
      <point x="898.0" y="452.0" type="line"/>
      <point x="1020.0" y="1180.0" type="line"/>
      <point x="1516.0" y="1180.0" type="line"/>
      <point x="1552.0" y="1400.0" type="line"/>
      <point x="940.0" y="1400.0" type="line" smooth="yes"/>
      <point x="546.0" y="1400.0"/>
      <point x="269.0" y="1190.0"/>
      <point x="206.0" y="816.0" type="curve" smooth="yes"/>
      <point x="145.0" y="442.0"/>
      <point x="352.0" y="232.0"/>
    </contour>
    <contour>
      <point x="1110.0" y="232.0" type="line"/>
      <point x="1358.0" y="232.0" type="line"/>
      <point x="1552.0" y="1400.0" type="line"/>
      <point x="1304.0" y="1400.0" type="line"/>
    </contour>
  </outline>
</glyph>
<glyph name="reversedsemicolon" format="2">
  <advance width="788.0"/>
  <unicode hex="204F"/>
  <outline>
    <contour>
      <point x="212.0" y="-500.0" type="curve"/>
      <point x="392.0" y="-500.0" type="line"/>
      <point x="386.0" y="-374.0"/>
      <point x="374.0" y="-104.0"/>
      <point x="390.0" y="168.0" type="curve" smooth="yes"/>
      <point x="398.0" y="280.0" type="line"/>
      <point x="142.0" y="280.0" type="line"/>
      <point x="140.0" y="172.0" type="line" smooth="yes"/>
      <point x="136.0" y="-56.0"/>
      <point x="186.0" y="-364.0"/>
    </contour>
    <contour>
      <point x="424.0" y="1124.0" type="curve" smooth="yes"/>
      <point x="522.0" y="1124.0"/>
      <point x="618.0" y="1206.0"/>
      <point x="634.0" y="1304.0" type="curve" smooth="yes"/>
      <point x="652.0" y="1404.0"/>
      <point x="582.0" y="1484.0"/>
      <point x="484.0" y="1484.0" type="curve" smooth="yes"/>
      <point x="384.0" y="1484.0"/>
      <point x="292.0" y="1404.0"/>
      <point x="274.0" y="1304.0" type="curve" smooth="yes"/>
      <point x="258.0" y="1206.0"/>
      <point x="324.0" y="1124.0"/>
    </contour>
  </outline>
</glyph>
<glyph name="parenleft.sups" format="2">
  <advance width="712.0"/>
  <unicode hex="207D"/>
  <outline>
    <contour>
      <point x="322.0" y="1580.0" type="curve" smooth="yes"/>
      <point x="268.0" y="1252.0"/>
      <point x="306.0" y="980.0"/>
      <point x="430.0" y="736.0" type="curve"/>
      <point x="634.0" y="736.0" type="line"/>
      <point x="530.0" y="936.0"/>
      <point x="494.0" y="1288.0"/>
      <point x="542.0" y="1576.0" type="curve" smooth="yes"/>
      <point x="594.0" y="1888.0"/>
      <point x="750.0" y="2232.0"/>
      <point x="914.0" y="2428.0" type="curve"/>
      <point x="710.0" y="2428.0" type="line"/>
      <point x="498.0" y="2172.0"/>
      <point x="374.0" y="1896.0"/>
    </contour>
  </outline>
</glyph>
<glyph name="parenright.sups" format="2">
  <advance width="712.0"/>
  <unicode hex="207E"/>
  <outline>
    <contour>
      <point x="658.0" y="1572.0" type="curve" smooth="yes"/>
      <point x="715.0" y="1916.0"/>
      <point x="674.0" y="2180.0"/>
      <point x="550.0" y="2428.0" type="curve"/>
      <point x="346.0" y="2428.0" type="line"/>
      <point x="450.0" y="2224.0"/>
      <point x="490.0" y="1888.0"/>
      <point x="438.0" y="1576.0" type="curve" smooth="yes"/>
      <point x="387.0" y="1272.0"/>
      <point x="234.0" y="932.0"/>
      <point x="66.0" y="736.0" type="curve"/>
      <point x="270.0" y="736.0" type="line"/>
      <point x="478.0" y="980.0"/>
      <point x="606.0" y="1260.0"/>
    </contour>
  </outline>
</glyph>
<glyph name="published" format="2">
  <advance width="1888.0"/>
  <unicode hex="2117"/>
  <outline>
    <contour>
      <point x="730.0" y="916.0" type="line"/>
      <point x="892.0" y="916.0" type="line"/>
      <point x="994.0" y="1534.0" type="line"/>
      <point x="1148.0" y="1534.0" type="line" smooth="yes"/>
      <point x="1206.0" y="1534.0"/>
      <point x="1246.0" y="1476.0"/>
      <point x="1234.0" y="1404.0" type="curve" smooth="yes"/>
      <point x="1222.0" y="1330.0"/>
      <point x="1164.0" y="1276.0"/>
      <point x="1102.0" y="1276.0" type="curve" smooth="yes"/>
      <point x="882.0" y="1276.0" type="line"/>
      <point x="862.0" y="1150.0" type="line"/>
      <point x="1098.0" y="1150.0" type="line" smooth="yes"/>
      <point x="1238.0" y="1150.0"/>
      <point x="1372.0" y="1254.0"/>
      <point x="1398.0" y="1404.0" type="curve" smooth="yes"/>
      <point x="1424.0" y="1552.0"/>
      <point x="1326.0" y="1654.0"/>
      <point x="1192.0" y="1654.0" type="curve" smooth="yes"/>
      <point x="852.0" y="1654.0" type="line"/>
    </contour>
    <contour>
      <point x="1028.0" y="476.0" type="curve" smooth="yes"/>
      <point x="1470.0" y="476.0"/>
      <point x="1828.0" y="834.0"/>
      <point x="1828.0" y="1276.0" type="curve" smooth="yes"/>
      <point x="1828.0" y="1718.0"/>
      <point x="1470.0" y="2076.0"/>
      <point x="1028.0" y="2076.0" type="curve" smooth="yes"/>
      <point x="586.0" y="2076.0"/>
      <point x="228.0" y="1718.0"/>
      <point x="228.0" y="1276.0" type="curve" smooth="yes"/>
      <point x="228.0" y="834.0"/>
      <point x="586.0" y="476.0"/>
    </contour>
    <contour>
      <point x="1028.0" y="668.0" type="curve" smooth="yes"/>
      <point x="692.0" y="668.0"/>
      <point x="420.0" y="940.0"/>
      <point x="420.0" y="1276.0" type="curve" smooth="yes"/>
      <point x="420.0" y="1612.0"/>
      <point x="692.0" y="1884.0"/>
      <point x="1028.0" y="1884.0" type="curve" smooth="yes"/>
      <point x="1364.0" y="1884.0"/>
      <point x="1636.0" y="1612.0"/>
      <point x="1636.0" y="1276.0" type="curve" smooth="yes"/>
      <point x="1636.0" y="940.0"/>
      <point x="1364.0" y="668.0"/>
    </contour>
  </outline>
</glyph>
<glyph name="servicemark" format="2">
  <advance width="1682.0"/>
  <unicode hex="2120"/>
  <note>
stroke R: 58, 50%
stroke B: x=120/y=86, 50%
</note>
  <outline>
    <contour>
      <point x="472.0" y="1306.0" type="curve" smooth="yes"/>
      <point x="646.0" y="1306.0"/>
      <point x="766.0" y="1386.0"/>
      <point x="788.0" y="1522.0" type="curve" smooth="yes"/>
      <point x="807.0" y="1640.0"/>
      <point x="742.0" y="1715.0"/>
      <point x="600.0" y="1740.0" type="curve" smooth="yes"/>
      <point x="520.0" y="1754.0" type="line" smooth="yes"/>
      <point x="446.0" y="1767.0"/>
      <point x="416.0" y="1796.0"/>
      <point x="424.0" y="1848.0" type="curve" smooth="yes"/>
      <point x="433.0" y="1908.0"/>
      <point x="482.0" y="1938.0"/>
      <point x="586.0" y="1938.0" type="curve" smooth="yes"/>
      <point x="692.0" y="1938.0"/>
      <point x="724.0" y="1908.0"/>
      <point x="712.0" y="1832.0" type="curve"/>
      <point x="828.0" y="1832.0" type="line"/>
      <point x="852.0" y="1978.0"/>
      <point x="772.0" y="2056.0"/>
      <point x="604.0" y="2054.0" type="curve" smooth="yes"/>
      <point x="438.0" y="2052.0"/>
      <point x="327.0" y="1976.0"/>
      <point x="308.0" y="1846.0" type="curve" smooth="yes"/>
      <point x="292.0" y="1734.0"/>
      <point x="356.0" y="1662.0"/>
      <point x="482.0" y="1640.0" type="curve" smooth="yes"/>
      <point x="562.0" y="1626.0" type="line" smooth="yes"/>
      <point x="652.0" y="1610.0"/>
      <point x="682.0" y="1578.0"/>
      <point x="672.0" y="1522.0" type="curve" smooth="yes"/>
      <point x="660.0" y="1456.0"/>
      <point x="602.0" y="1422.0"/>
      <point x="492.0" y="1422.0" type="curve" smooth="yes"/>
      <point x="378.0" y="1422.0"/>
      <point x="342.0" y="1458.0"/>
      <point x="354.0" y="1536.0" type="curve"/>
      <point x="238.0" y="1536.0" type="line"/>
      <point x="214.0" y="1388.0"/>
      <point x="298.0" y="1306.0"/>
    </contour>
    <contour>
      <point x="876.0" y="1312.0" type="line"/>
      <point x="1004.0" y="1312.0" type="line"/>
      <point x="1126.0" y="2048.0" type="line"/>
      <point x="998.0" y="2048.0" type="line"/>
    </contour>
    <contour>
      <point x="1226.0" y="1312.0" type="line"/>
      <point x="1294.0" y="1312.0" type="line"/>
      <point x="1742.0" y="2048.0" type="line"/>
      <point x="1610.0" y="2048.0" type="line"/>
      <point x="1292.0" y="1508.0" type="line"/>
      <point x="1154.0" y="2048.0" type="line"/>
      <point x="1022.0" y="2048.0" type="line"/>
    </contour>
    <contour>
      <point x="1516.0" y="1312.0" type="line"/>
      <point x="1644.0" y="1312.0" type="line"/>
      <point x="1766.0" y="2048.0" type="line"/>
      <point x="1638.0" y="2048.0" type="line"/>
    </contour>
  </outline>
</glyph>
<glyph name="tel" format="2">
  <advance width="1952.0"/>
  <unicode hex="2121"/>
  <outline>
    <contour>
      <point x="906.0" y="1312.0" type="line"/>
      <point x="1354.0" y="1312.0" type="line"/>
      <point x="1372.0" y="1424.0" type="line"/>
      <point x="1052.0" y="1424.0" type="line"/>
      <point x="1136.0" y="1936.0" type="line"/>
      <point x="1456.0" y="1936.0" type="line"/>
      <point x="1476.0" y="2048.0" type="line"/>
      <point x="1028.0" y="2048.0" type="line"/>
    </contour>
    <contour>
      <point x="426.0" y="1312.0" type="line"/>
      <point x="554.0" y="1312.0" type="line"/>
      <point x="664.0" y="1984.0" type="line"/>
      <point x="536.0" y="1984.0" type="line"/>
    </contour>
    <contour>
      <point x="304.0" y="1936.0" type="line"/>
      <point x="880.0" y="1936.0" type="line"/>
      <point x="900.0" y="2048.0" type="line"/>
      <point x="324.0" y="2048.0" type="line"/>
    </contour>
    <contour>
      <point x="1034.0" y="1632.0" type="line"/>
      <point x="1342.0" y="1632.0" type="line"/>
      <point x="1362.0" y="1744.0" type="line"/>
      <point x="1054.0" y="1744.0" type="line"/>
    </contour>
    <contour>
      <point x="1482.0" y="1312.0" type="line"/>
      <point x="1930.0" y="1312.0" type="line"/>
      <point x="1948.0" y="1424.0" type="line"/>
      <point x="1628.0" y="1424.0" type="line"/>
      <point x="1732.0" y="2048.0" type="line"/>
      <point x="1604.0" y="2048.0" type="line"/>
    </contour>
  </outline>
</glyph>
<glyph name="trademark" format="2">
  <advance width="1712.0"/>
  <unicode hex="2122"/>
  <outline>
    <contour>
      <point x="1256.0" y="1312.0" type="line"/>
      <point x="1324.0" y="1312.0" type="line"/>
      <point x="1772.0" y="2048.0" type="line"/>
      <point x="1640.0" y="2048.0" type="line"/>
      <point x="1324.0" y="1508.0" type="line"/>
      <point x="1184.0" y="2048.0" type="line"/>
      <point x="1052.0" y="2048.0" type="line"/>
    </contour>
    <contour>
      <point x="906.0" y="1312.0" type="line"/>
      <point x="1034.0" y="1312.0" type="line"/>
      <point x="1156.0" y="2048.0" type="line"/>
      <point x="1028.0" y="2048.0" type="line"/>
    </contour>
    <contour>
      <point x="1546.0" y="1312.0" type="line"/>
      <point x="1674.0" y="1312.0" type="line"/>
      <point x="1796.0" y="2048.0" type="line"/>
      <point x="1668.0" y="2048.0" type="line"/>
    </contour>
    <contour>
      <point x="426.0" y="1312.0" type="line"/>
      <point x="554.0" y="1312.0" type="line"/>
      <point x="666.0" y="1984.0" type="line"/>
      <point x="538.0" y="1984.0" type="line"/>
    </contour>
    <contour>
      <point x="306.0" y="1936.0" type="line"/>
      <point x="882.0" y="1936.0" type="line"/>
      <point x="900.0" y="2048.0" type="line"/>
      <point x="324.0" y="2048.0" type="line"/>
    </contour>
  </outline>
</glyph>
<glyph name="uni213B" format="2">
  <advance width="2064.0"/>
  <unicode hex="213B"/>
  <outline>
    <contour>
      <point x="218.0" y="1312.0" type="line"/>
      <point x="346.0" y="1312.0" type="line"/>
      <point x="394.0" y="1608.0" type="line"/>
      <point x="650.0" y="1608.0" type="line"/>
      <point x="670.0" y="1720.0" type="line"/>
      <point x="414.0" y="1720.0" type="line"/>
      <point x="448.0" y="1936.0" type="line"/>
      <point x="744.0" y="1936.0" type="line"/>
      <point x="764.0" y="2048.0" type="line"/>
      <point x="340.0" y="2048.0" type="line"/>
    </contour>
    <contour>
      <point x="636.0" y="1312.0" type="line"/>
      <point x="768.0" y="1312.0" type="line"/>
      <point x="1088.0" y="1896.0" type="line"/>
      <point x="1220.0" y="1312.0" type="line"/>
      <point x="1348.0" y="1312.0" type="line"/>
      <point x="1174.0" y="2048.0" type="line"/>
      <point x="1058.0" y="2048.0" type="line"/>
    </contour>
    <contour>
      <point x="814.0" y="1484.0" type="line"/>
      <point x="1230.0" y="1484.0" type="line"/>
      <point x="1248.0" y="1588.0" type="line"/>
      <point x="832.0" y="1588.0" type="line"/>
    </contour>
    <contour>
      <point x="1396.0" y="1312.0" type="line"/>
      <point x="1536.0" y="1312.0" type="line"/>
      <point x="2160.0" y="2048.0" type="line"/>
      <point x="2018.0" y="2048.0" type="line"/>
    </contour>
    <contour>
      <point x="1902.0" y="1312.0" type="line"/>
      <point x="2042.0" y="1312.0" type="line"/>
      <point x="1664.0" y="2048.0" type="line"/>
      <point x="1522.0" y="2048.0" type="line"/>
    </contour>
  </outline>
</glyph>
<glyph name="leftArrow" format="2">
  <advance width="2688.0"/>
  <unicode hex="2190"/>
  <note>
stroke (offset curve):
  L head: 32, 0%
  L stem: 32, 50%
  R head: 108, 0%
  R stem: 110, 50%
  B head: 200, 0%
  B stem: 208, 50%
</note>
  <guideline x="272.0" y="896.0" angle="0.0"/>
  <guideline x="892.0" y="1008.0" angle="90.0"/>
  <outline>
    <contour>
      <point x="1046.0" y="0.0" type="line"/>
      <point x="1212.0" y="138.0" type="line"/>
      <point x="672.0" y="786.0" type="line"/>
      <point x="2336.0" y="786.0" type="line"/>
      <point x="2374.0" y="1006.0" type="line"/>
      <point x="758.0" y="1006.0" type="line"/>
      <point x="1486.0" y="1628.0" type="line"/>
      <point x="1344.0" y="1792.0" type="line"/>
      <point x="298.0" y="896.0" type="line"/>
    </contour>
  </outline>
</glyph>
<glyph name="upArrow" format="2">
  <advance width="2688.0"/>
  <unicode hex="2191"/>
  <outline>
    <contour>
      <point x="1106.0" y="0.0" type="line"/>
      <point x="1326.0" y="0.0" type="line"/>
      <point x="1598.0" y="1644.0" type="line"/>
      <point x="2128.0" y="1010.0" type="line"/>
      <point x="2306.0" y="1164.0" type="line"/>
      <point x="1558.0" y="2060.0" type="line"/>
      <point x="512.0" y="1164.0" type="line"/>
      <point x="642.0" y="1010.0" type="line"/>
      <point x="1378.0" y="1644.0" type="line"/>
    </contour>
  </outline>
</glyph>
<glyph name="rightArrow" format="2">
  <advance width="2688.0"/>
  <unicode hex="2192"/>
  <outline>
    <contour>
      <point x="1386.0" y="0.0" type="line"/>
      <point x="2432.0" y="896.0" type="line"/>
      <point x="1684.0" y="1792.0" type="line"/>
      <point x="1518.0" y="1654.0" type="line"/>
      <point x="2058.0" y="1006.0" type="line"/>
      <point x="394.0" y="1006.0" type="line"/>
      <point x="356.0" y="786.0" type="line"/>
      <point x="1972.0" y="786.0" type="line"/>
      <point x="1244.0" y="164.0" type="line"/>
    </contour>
  </outline>
</glyph>
<glyph name="leftRightArrow" format="2">
  <advance width="3776.0"/>
  <unicode hex="2194"/>
  <outline>
    <contour>
      <point x="1046.0" y="0.0" type="line"/>
      <point x="1212.0" y="138.0" type="line"/>
      <point x="672.0" y="786.0" type="line"/>
      <point x="3060.0" y="786.0" type="line"/>
      <point x="2332.0" y="164.0" type="line"/>
      <point x="2474.0" y="0.0" type="line"/>
      <point x="3520.0" y="896.0" type="line"/>
      <point x="2772.0" y="1792.0" type="line"/>
      <point x="2606.0" y="1654.0" type="line"/>
      <point x="3146.0" y="1006.0" type="line"/>
      <point x="758.0" y="1006.0" type="line"/>
      <point x="1486.0" y="1628.0" type="line"/>
      <point x="1344.0" y="1792.0" type="line"/>
      <point x="298.0" y="896.0" type="line"/>
    </contour>
  </outline>
</glyph>
<glyph name="upDownArrow" format="2">
  <advance width="2688.0"/>
  <unicode hex="2195"/>
  <note>
vertical align with hyphen
</note>
  <outline>
    <contour>
      <point x="1116.0" y="-612.0" type="line"/>
      <point x="2160.0" y="284.0" type="line"/>
      <point x="2034.0" y="438.0" type="line"/>
      <point x="1294.0" y="-196.0" type="line"/>
      <point x="1650.0" y="1952.0" type="line"/>
      <point x="2180.0" y="1318.0" type="line"/>
      <point x="2356.0" y="1472.0" type="line"/>
      <point x="1608.0" y="2368.0" type="line"/>
      <point x="564.0" y="1472.0" type="line"/>
      <point x="694.0" y="1318.0" type="line"/>
      <point x="1430.0" y="1952.0" type="line"/>
      <point x="1074.0" y="-196.0" type="line"/>
      <point x="548.0" y="438.0" type="line"/>
      <point x="368.0" y="284.0" type="line"/>
    </contour>
  </outline>
</glyph>
<glyph name="northWestArrow" format="2">
  <advance width="2688.0"/>
  <unicode hex="2196"/>
  <outline>
    <contour>
      <point x="600.0" y="780.0" type="line"/>
      <point x="818.0" y="780.0" type="line"/>
      <point x="964.0" y="1676.0" type="line"/>
      <point x="1932.0" y="514.0" type="line"/>
      <point x="2114.0" y="670.0" type="line"/>
      <point x="1146.0" y="1832.0" type="line"/>
      <point x="2042.0" y="1832.0" type="line"/>
      <point x="2076.0" y="2048.0" type="line"/>
      <point x="810.0" y="2048.0" type="line"/>
    </contour>
  </outline>
</glyph>
<glyph name="northEastArrow" format="2">
  <advance width="2688.0"/>
  <unicode hex="2197"/>
  <outline>
    <contour>
      <point x="672.0" y="514.0" type="line"/>
      <point x="2024.0" y="1676.0" type="line"/>
      <point x="1874.0" y="780.0" type="line"/>
      <point x="2092.0" y="780.0" type="line"/>
      <point x="2302.0" y="2048.0" type="line"/>
      <point x="1036.0" y="2048.0" type="line"/>
      <point x="998.0" y="1832.0" type="line"/>
      <point x="1894.0" y="1832.0" type="line"/>
      <point x="542.0" y="670.0" type="line"/>
    </contour>
  </outline>
</glyph>
<glyph name="leftHookArrow" format="2">
  <advance width="3218.0"/>
  <unicode hex="21A9"/>
  <note>
stroke offset curve:
L head: 32, 0%
L stem: 32, 50%
R stem: 110, 50%
R head: 108, 0%
B head: 200, 0%
B stem: 208, 50%
</note>
  <outline>
    <contour>
      <point x="512.0" y="786.0" type="line"/>
      <point x="2286.0" y="786.0" type="line" smooth="yes"/>
      <point x="2652.0" y="786.0"/>
      <point x="2998.0" y="1084.0"/>
      <point x="3058.0" y="1450.0" type="curve" smooth="yes"/>
      <point x="3119.0" y="1815.0"/>
      <point x="2871.0" y="2112.0"/>
      <point x="2506.0" y="2112.0" type="curve" smooth="yes"/>
      <point x="2404.0" y="2112.0" type="line"/>
      <point x="2368.0" y="1892.0" type="line"/>
      <point x="2470.0" y="1892.0" type="line" smooth="yes"/>
      <point x="2713.0" y="1892.0"/>
      <point x="2879.0" y="1693.0"/>
      <point x="2838.0" y="1450.0" type="curve" smooth="yes"/>
      <point x="2798.0" y="1205.0"/>
      <point x="2567.0" y="1006.0"/>
      <point x="2324.0" y="1006.0" type="curve" smooth="yes"/>
      <point x="550.0" y="1006.0" type="line"/>
    </contour>
    <contour>
      <point x="1044.0" y="0.0" type="line"/>
      <point x="1224.0" y="154.0" type="line"/>
      <point x="602.0" y="896.0" type="line"/>
      <point x="1470.0" y="1640.0" type="line"/>
      <point x="1342.0" y="1792.0" type="line"/>
      <point x="298.0" y="896.0" type="line"/>
    </contour>
  </outline>
</glyph>
<glyph name="rightHookArrow" format="2">
  <advance width="3218.0"/>
  <unicode hex="21AA"/>
  <note>
Mirror copy of leftHookArrow
</note>
  <outline>
    <contour>
      <point x="934.0" y="786.0" type="curve" smooth="yes"/>
      <point x="2708.0" y="786.0" type="line"/>
      <point x="2746.0" y="1006.0" type="line"/>
      <point x="972.0" y="1006.0" type="line" smooth="yes"/>
      <point x="728.0" y="1006.0"/>
      <point x="562.0" y="1206.0"/>
      <point x="602.0" y="1450.0" type="curve" smooth="yes"/>
      <point x="644.0" y="1694.0"/>
      <point x="876.0" y="1892.0"/>
      <point x="1118.0" y="1892.0" type="curve" smooth="yes"/>
      <point x="1220.0" y="1892.0" type="line"/>
      <point x="1256.0" y="2112.0" type="line"/>
      <point x="1154.0" y="2112.0" type="line" smooth="yes"/>
      <point x="790.0" y="2112.0"/>
      <point x="444.0" y="1816.0"/>
      <point x="382.0" y="1450.0" type="curve" smooth="yes"/>
      <point x="322.0" y="1084.0"/>
      <point x="570.0" y="786.0"/>
    </contour>
    <contour>
      <point x="1916.0" y="0.0" type="line"/>
      <point x="2962.0" y="896.0" type="line"/>
      <point x="2214.0" y="1792.0" type="line"/>
      <point x="2036.0" y="1640.0" type="line"/>
      <point x="2658.0" y="896.0" type="line"/>
      <point x="1790.0" y="154.0" type="line"/>
    </contour>
  </outline>
</glyph>
<glyph name="upTipLeftArrow" format="2">
  <advance width="2774.0"/>
  <unicode hex="21B0"/>
  <note>
Mirror copy of carriagereturn
</note>
  <outline>
    <contour>
      <point x="898.0" y="924.0" type="line"/>
      <point x="1094.0" y="2112.0" type="line"/>
      <point x="402.0" y="1518.0" type="line"/>
    </contour>
    <contour>
      <point x="796.0" y="1410.0" type="line"/>
      <point x="2594.0" y="1410.0" type="line"/>
      <point x="2630.0" y="1626.0" type="line"/>
      <point x="832.0" y="1626.0" type="line"/>
    </contour>
    <contour>
      <point x="2150.0" y="0.0" type="line"/>
      <point x="2366.0" y="0.0" type="line"/>
      <point x="2636.0" y="1626.0" type="line"/>
      <point x="2420.0" y="1626.0" type="line"/>
    </contour>
  </outline>
</glyph>
<glyph name="upTipRightArrow" format="2">
  <advance width="2774.0"/>
  <unicode hex="21B1"/>
  <note>
Mirror copy of carriagereturn
</note>
  <outline>
    <contour>
      <point x="1928.0" y="924.0" type="line"/>
      <point x="2620.0" y="1518.0" type="line"/>
      <point x="2124.0" y="2112.0" type="line"/>
    </contour>
    <contour>
      <point x="152.0" y="0.0" type="line"/>
      <point x="368.0" y="0.0" type="line"/>
      <point x="638.0" y="1626.0" type="line"/>
      <point x="422.0" y="1626.0" type="line"/>
    </contour>
    <contour>
      <point x="392.0" y="1410.0" type="line"/>
      <point x="2190.0" y="1410.0" type="line"/>
      <point x="2226.0" y="1626.0" type="line"/>
      <point x="428.0" y="1626.0" type="line"/>
    </contour>
  </outline>
</glyph>
<glyph name="downTipRightArrow" format="2">
  <advance width="2774.0"/>
  <unicode hex="21B3"/>
  <note>
Mirror copy of carriagereturn
</note>
  <outline>
    <contour>
      <point x="1824.0" y="302.0" type="line"/>
      <point x="2518.0" y="896.0" type="line"/>
      <point x="2022.0" y="1490.0" type="line"/>
    </contour>
    <contour>
      <point x="284.0" y="788.0" type="line"/>
      <point x="500.0" y="788.0" type="line"/>
      <point x="708.0" y="2048.0" type="line"/>
      <point x="492.0" y="2048.0" type="line"/>
    </contour>
    <contour>
      <point x="290.0" y="788.0" type="line"/>
      <point x="2088.0" y="788.0" type="line"/>
      <point x="2124.0" y="1004.0" type="line"/>
      <point x="326.0" y="1004.0" type="line"/>
    </contour>
  </outline>
</glyph>
<glyph name="rightCornerDownArrow" format="2">
  <advance width="2336.0"/>
  <unicode hex="21B4"/>
  <note>
Mirror copy of carriagereturn
</note>
  <outline>
    <contour>
      <point x="1330.0" y="-32.0" type="line"/>
      <point x="2022.0" y="562.0" type="line"/>
      <point x="834.0" y="562.0" type="line"/>
    </contour>
    <contour>
      <point x="1290.0" y="380.0" type="line"/>
      <point x="1506.0" y="380.0" type="line"/>
      <point x="1782.0" y="2044.0" type="line"/>
      <point x="1564.0" y="2044.0" type="line"/>
    </contour>
    <contour>
      <point x="456.0" y="1834.0" type="line"/>
      <point x="1748.0" y="1834.0" type="line"/>
      <point x="1784.0" y="2050.0" type="line"/>
      <point x="492.0" y="2050.0" type="line"/>
    </contour>
  </outline>
</glyph>
<glyph name="carriagereturn" format="2">
  <advance width="2774.0"/>
  <unicode hex="21B5"/>
  <outline>
    <contour>
      <point x="794.0" y="302.0" type="line"/>
      <point x="992.0" y="1490.0" type="line"/>
      <point x="300.0" y="896.0" type="line"/>
    </contour>
    <contour>
      <point x="694.0" y="788.0" type="line"/>
      <point x="2492.0" y="788.0" type="line"/>
      <point x="2528.0" y="1004.0" type="line"/>
      <point x="730.0" y="1004.0" type="line"/>
    </contour>
    <contour>
      <point x="2282.0" y="788.0" type="line"/>
      <point x="2498.0" y="788.0" type="line"/>
      <point x="2706.0" y="2048.0" type="line"/>
      <point x="2490.0" y="2048.0" type="line"/>
    </contour>
  </outline>
</glyph>
<glyph name="anticlockwiseOpenCircleArrow" format="2">
  <advance width="2688.0"/>
  <unicode hex="21BA"/>
  <outline>
    <contour>
      <point x="1520.0" y="1828.0" type="line"/>
      <point x="1964.0" y="1828.0"/>
      <point x="2264.0" y="1470.0"/>
      <point x="2190.0" y="1024.0" type="curve" smooth="yes"/>
      <point x="2118.0" y="580.0"/>
      <point x="1698.0" y="220.0"/>
      <point x="1254.0" y="220.0" type="curve" smooth="yes"/>
      <point x="810.0" y="220.0"/>
      <point x="508.0" y="580.0"/>
      <point x="582.0" y="1024.0" type="curve"/>
      <point x="362.0" y="1024.0" type="line"/>
      <point x="268.0" y="458.0"/>
      <point x="652.0" y="0.0"/>
      <point x="1216.0" y="0.0" type="curve" smooth="yes"/>
      <point x="1784.0" y="0.0"/>
      <point x="2318.0" y="458.0"/>
      <point x="2410.0" y="1024.0" type="curve" smooth="yes"/>
      <point x="2504.0" y="1590.0"/>
      <point x="2122.0" y="2048.0"/>
      <point x="1556.0" y="2048.0" type="curve"/>
    </contour>
    <contour>
      <point x="1500.0" y="1324.0" type="line"/>
      <point x="1696.0" y="2512.0" type="line"/>
      <point x="1004.0" y="1918.0" type="line"/>
    </contour>
  </outline>
</glyph>
<glyph name="clockwiseOpenCircleArrow" format="2">
  <advance width="2688.0"/>
  <unicode hex="21BB"/>
  <outline>
    <contour>
      <point x="1216.0" y="0.0" type="curve" smooth="yes"/>
      <point x="1782.0" y="0.0"/>
      <point x="2318.0" y="458.0"/>
      <point x="2410.0" y="1024.0" type="curve"/>
      <point x="2190.0" y="1024.0" type="line"/>
      <point x="2118.0" y="580.0"/>
      <point x="1698.0" y="220.0"/>
      <point x="1254.0" y="220.0" type="curve" smooth="yes"/>
      <point x="808.0" y="220.0"/>
      <point x="508.0" y="580.0"/>
      <point x="582.0" y="1024.0" type="curve" smooth="yes"/>
      <point x="658.0" y="1470.0"/>
      <point x="1074.0" y="1828.0"/>
      <point x="1520.0" y="1828.0" type="curve"/>
      <point x="1556.0" y="2048.0" type="line"/>
      <point x="988.0" y="2048.0"/>
      <point x="458.0" y="1590.0"/>
      <point x="362.0" y="1024.0" type="curve" smooth="yes"/>
      <point x="268.0" y="458.0"/>
      <point x="650.0" y="0.0"/>
    </contour>
    <contour>
      <point x="1372.0" y="1324.0" type="line"/>
      <point x="2064.0" y="1918.0" type="line"/>
      <point x="1568.0" y="2512.0" type="line"/>
    </contour>
  </outline>
</glyph>
<glyph name="pageup" format="2">
  <advance width="1700.0"/>
  <unicode hex="21DE"/>
  <outline>
    <contour>
      <point x="382.0" y="1536.0" type="line"/>
      <point x="1570.0" y="1536.0" type="line"/>
      <point x="1074.0" y="2130.0" type="line"/>
    </contour>
    <contour>
      <point x="354.0" y="510.0" type="line"/>
      <point x="1258.0" y="510.0" type="line"/>
      <point x="1292.0" y="710.0" type="line"/>
      <point x="388.0" y="710.0" type="line"/>
    </contour>
    <contour>
      <point x="614.0" y="0.0" type="line"/>
      <point x="830.0" y="0.0" type="line"/>
      <point x="1114.0" y="1718.0" type="line"/>
      <point x="898.0" y="1718.0" type="line"/>
    </contour>
    <contour>
      <point x="428.0" y="952.0" type="line"/>
      <point x="1332.0" y="952.0" type="line"/>
      <point x="1364.0" y="1152.0" type="line"/>
      <point x="460.0" y="1152.0" type="line"/>
    </contour>
  </outline>
</glyph>
<glyph name="pagedown" format="2">
  <advance width="1700.0"/>
  <unicode hex="21DF"/>
  <outline>
    <contour>
      <point x="712.0" y="-62.0" type="line"/>
      <point x="1404.0" y="532.0" type="line"/>
      <point x="216.0" y="532.0" type="line"/>
    </contour>
    <contour>
      <point x="422.0" y="916.0" type="line"/>
      <point x="1326.0" y="916.0" type="line"/>
      <point x="1360.0" y="1116.0" type="line"/>
      <point x="456.0" y="1116.0" type="line"/>
    </contour>
    <contour>
      <point x="672.0" y="350.0" type="line"/>
      <point x="888.0" y="350.0" type="line"/>
      <point x="1174.0" y="2068.0" type="line"/>
      <point x="958.0" y="2068.0" type="line"/>
    </contour>
    <contour>
      <point x="496.0" y="1358.0" type="line"/>
      <point x="1400.0" y="1358.0" type="line"/>
      <point x="1432.0" y="1558.0" type="line"/>
      <point x="528.0" y="1558.0" type="line"/>
    </contour>
  </outline>
</glyph>
<glyph name="arrowtableft" format="2">
  <advance width="2848.0"/>
  <unicode hex="21E4"/>
  <outline>
    <contour>
      <point x="1212.0" y="430.0" type="line"/>
      <point x="1408.0" y="1618.0" type="line"/>
      <point x="716.0" y="1024.0" type="line"/>
    </contour>
    <contour>
      <point x="200.0" y="432.0" type="line"/>
      <point x="416.0" y="432.0" type="line"/>
      <point x="612.0" y="1616.0" type="line"/>
      <point x="396.0" y="1616.0" type="line"/>
    </contour>
    <contour>
      <point x="1110.0" y="916.0" type="line"/>
      <point x="2616.0" y="916.0" type="line"/>
      <point x="2652.0" y="1132.0" type="line"/>
      <point x="1146.0" y="1132.0" type="line"/>
    </contour>
  </outline>
</glyph>
<glyph name="arrowtabright" format="2">
  <advance width="2848.0"/>
  <unicode hex="21E5"/>
  <note>
Mirror copy of arrowtableft
</note>
  <outline>
    <contour>
      <point x="1524.0" y="430.0" type="line"/>
      <point x="2216.0" y="1024.0" type="line"/>
      <point x="1720.0" y="1618.0" type="line"/>
    </contour>
    <contour>
      <point x="280.0" y="916.0" type="line"/>
      <point x="1786.0" y="916.0" type="line"/>
      <point x="1822.0" y="1132.0" type="line"/>
      <point x="316.0" y="1132.0" type="line"/>
    </contour>
    <contour>
      <point x="2320.0" y="432.0" type="line"/>
      <point x="2536.0" y="432.0" type="line"/>
      <point x="2732.0" y="1616.0" type="line"/>
      <point x="2516.0" y="1616.0" type="line"/>
    </contour>
  </outline>
</glyph>
<glyph name="upWhiteArrow" format="2">
  <advance width="2880.0"/>
  <unicode hex="21E7"/>
  <note>
based of off upBlackArrow
stroke:
L: 32,32,100%,keepCom.
R: 100,90,100%,keepCom.
B: 208,150,100%,keepCom.
</note>
  <outline>
    <contour>
      <point x="298.0" y="1024.0" type="line"/>
      <point x="906.0" y="1024.0" type="line"/>
      <point x="736.0" y="0.0" type="line"/>
      <point x="1888.0" y="0.0" type="line"/>
      <point x="2058.0" y="1024.0" type="line"/>
      <point x="2666.0" y="1024.0" type="line"/>
      <point x="1678.0" y="2208.0" type="line"/>
    </contour>
    <contour>
      <point x="797.0" y="1204.0" type="line"/>
      <point x="1653.0" y="1938.0" type="line"/>
      <point x="2266.0" y="1204.0" type="line"/>
      <point x="1886.0" y="1204.0" type="line"/>
      <point x="1716.0" y="180.0" type="line"/>
      <point x="968.0" y="180.0" type="line"/>
      <point x="1138.0" y="1204.0" type="line"/>
    </contour>
  </outline>
</glyph>
<glyph name="capslock" format="2">
  <advance width="2880.0"/>
  <unicode hex="21EA"/>
  <note>
Based on upWhiteArrow
</note>
  <outline>
    <contour>
      <point x="806.0" y="420.0" type="line"/>
      <point x="1958.0" y="420.0" type="line"/>
      <point x="2058.0" y="1024.0" type="line"/>
      <point x="2666.0" y="1024.0" type="line"/>
      <point x="1678.0" y="2208.0" type="line"/>
      <point x="298.0" y="1024.0" type="line"/>
      <point x="906.0" y="1024.0" type="line"/>
    </contour>
    <contour>
      <point x="666.0" y="-428.0" type="line"/>
      <point x="1818.0" y="-428.0" type="line"/>
      <point x="1918.0" y="180.0" type="line"/>
      <point x="766.0" y="180.0" type="line"/>
    </contour>
    <contour>
      <point x="896.0" y="-248.0" type="line"/>
      <point x="936.0" y="0.0" type="line"/>
      <point x="1688.0" y="0.0" type="line"/>
      <point x="1648.0" y="-248.0" type="line"/>
    </contour>
    <contour>
      <point x="1036.0" y="600.0" type="line"/>
      <point x="1136.0" y="1204.0" type="line"/>
      <point x="778.0" y="1204.0" type="line"/>
      <point x="1634.0" y="1940.0" type="line"/>
      <point x="2248.0" y="1204.0" type="line"/>
      <point x="1888.0" y="1204.0" type="line"/>
      <point x="1788.0" y="600.0" type="line"/>
    </contour>
  </outline>
</glyph>
<glyph name="minus" format="2">
  <advance width="1856.0"/>
  <unicode hex="2212"/>
  <outline>
    <contour>
      <point x="1592.0" y="912.0" type="line"/>
      <point x="312.0" y="912.0" type="line"/>
      <point x="274.0" y="688.0" type="line"/>
      <point x="1554.0" y="688.0" type="line"/>
    </contour>
  </outline>
</glyph>
<glyph name="approxequal" format="2">
  <advance width="1856.0"/>
  <unicode hex="2248"/>
  <outline>
    <contour>
      <point x="202.0" y="900.0" type="curve"/>
      <point x="418.0" y="900.0" type="line"/>
      <point x="443.0" y="1059.0"/>
      <point x="521.0" y="1144.0"/>
      <point x="642.0" y="1144.0" type="curve" smooth="yes"/>
      <point x="722.0" y="1144.0"/>
      <point x="777.0" y="1117.0"/>
      <point x="854.0" y="1040.0" type="curve" smooth="yes"/>
      <point x="1007.0" y="887.0"/>
      <point x="1107.0" y="844.0"/>
      <point x="1226.0" y="844.0" type="curve" smooth="yes"/>
      <point x="1474.0" y="844.0"/>
      <point x="1621.0" y="1022.0"/>
      <point x="1662.0" y="1304.0" type="curve"/>
      <point x="1446.0" y="1304.0" type="line"/>
      <point x="1423.0" y="1148.0"/>
      <point x="1341.0" y="1060.0"/>
      <point x="1222.0" y="1060.0" type="curve" smooth="yes"/>
      <point x="1157.0" y="1060.0"/>
      <point x="1120.0" y="1082.0"/>
      <point x="1026.0" y="1176.0" type="curve" smooth="yes"/>
      <point x="892.0" y="1310.0"/>
      <point x="766.0" y="1360.0"/>
      <point x="638.0" y="1360.0" type="curve" smooth="yes"/>
      <point x="392.0" y="1360.0"/>
      <point x="246.0" y="1183.0"/>
    </contour>
    <contour>
      <point x="202.0" y="296.0" type="curve"/>
      <point x="418.0" y="296.0" type="line"/>
      <point x="443.0" y="455.0"/>
      <point x="521.0" y="540.0"/>
      <point x="642.0" y="540.0" type="curve" smooth="yes"/>
      <point x="722.0" y="540.0"/>
      <point x="777.0" y="513.0"/>
      <point x="854.0" y="436.0" type="curve" smooth="yes"/>
      <point x="1007.0" y="283.0"/>
      <point x="1107.0" y="240.0"/>
      <point x="1226.0" y="240.0" type="curve" smooth="yes"/>
      <point x="1474.0" y="240.0"/>
      <point x="1621.0" y="418.0"/>
      <point x="1662.0" y="700.0" type="curve"/>
      <point x="1446.0" y="700.0" type="line"/>
      <point x="1423.0" y="544.0"/>
      <point x="1341.0" y="456.0"/>
      <point x="1222.0" y="456.0" type="curve" smooth="yes"/>
      <point x="1157.0" y="456.0"/>
      <point x="1120.0" y="478.0"/>
      <point x="1026.0" y="572.0" type="curve" smooth="yes"/>
      <point x="892.0" y="706.0"/>
      <point x="766.0" y="756.0"/>
      <point x="638.0" y="756.0" type="curve" smooth="yes"/>
      <point x="392.0" y="756.0"/>
      <point x="246.0" y="579.0"/>
    </contour>
  </outline>
</glyph>
<glyph name="greaterequal" format="2">
  <advance width="1856.0"/>
  <unicode hex="2265"/>
  <outline>
    <contour>
      <point x="172.0" y="96.0" type="line"/>
      <point x="1460.0" y="96.0" type="line"/>
      <point x="1496.0" y="320.0" type="line"/>
      <point x="208.0" y="320.0" type="line"/>
    </contour>
    <contour>
      <point x="1600.0" y="944.0" type="line"/>
      <point x="1628.0" y="1104.0" type="line"/>
      <point x="416.0" y="1568.0" type="line"/>
      <point x="376.0" y="1324.0" type="line"/>
      <point x="1228.0" y="1028.0" type="line"/>
      <point x="1220.0" y="1044.0" type="line"/>
      <point x="1216.0" y="1004.0" type="line"/>
      <point x="1224.0" y="1020.0" type="line"/>
      <point x="276.0" y="724.0" type="line"/>
      <point x="236.0" y="480.0" type="line"/>
    </contour>
  </outline>
</glyph>
<glyph name="control" format="2">
  <advance width="2240.0"/>
  <unicode hex="2303"/>
  <note>
stroke:
L: 32,32,100%
R: 108,108,100%
B: 200,200,100%
</note>
  <outline>
    <contour>
      <point x="528.0" y="1096.0" type="line"/>
      <point x="1304.0" y="1764.0" type="line"/>
      <point x="1862.0" y="1096.0" type="line"/>
      <point x="2020.0" y="1248.0" type="line"/>
      <point x="1336.0" y="2068.0" type="line"/>
      <point x="380.0" y="1248.0" type="line"/>
    </contour>
  </outline>
</glyph>
<glyph name="projective" format="2">
  <advance width="2240.0"/>
  <unicode hex="2305"/>
  <note>
Based on control
</note>
  <outline>
    <contour>
      <point x="480.0" y="1828.0" type="line"/>
      <point x="2112.0" y="1828.0" type="line"/>
      <point x="2148.0" y="2048.0" type="line"/>
      <point x="516.0" y="2048.0" type="line"/>
    </contour>
    <component base="control" xOffset="-86.0" yOffset="-512.0"/>
  </outline>
</glyph>
<glyph name="placeofinterestsign" format="2">
  <advance width="2820.0"/>
  <unicode hex="2318"/>
  <outline>
    <contour>
      <point x="640.0" y="-46.0" type="curve"/>
      <point x="879.0" y="-46.0"/>
      <point x="1107.0" y="149.0"/>
      <point x="1148.0" y="388.0" type="curve"/>
      <point x="1186.0" y="620.0" type="line"/>
      <point x="1588.0" y="620.0" type="line"/>
      <point x="1550.0" y="388.0" type="line"/>
      <point x="1509.0" y="149.0"/>
      <point x="1671.0" y="-46.0"/>
      <point x="1912.0" y="-46.0" type="curve"/>
      <point x="2150.0" y="-46.0"/>
      <point x="2379.0" y="148.0"/>
      <point x="2418.0" y="388.0" type="curve" smooth="yes"/>
      <point x="2457.0" y="626.0"/>
      <point x="2294.0" y="823.0"/>
      <point x="2056.0" y="824.0" type="curve"/>
      <point x="1826.0" y="824.0" type="line"/>
      <point x="1892.0" y="1226.0" type="line"/>
      <point x="2122.0" y="1226.0" type="line"/>
      <point x="2361.0" y="1225.0"/>
      <point x="2588.0" y="1420.0"/>
      <point x="2628.0" y="1660.0" type="curve" smooth="yes"/>
      <point x="2668.0" y="1900.0"/>
      <point x="2505.0" y="2094.0"/>
      <point x="2266.0" y="2094.0" type="curve"/>
      <point x="2026.0" y="2094.0"/>
      <point x="1798.0" y="1899.0"/>
      <point x="1760.0" y="1660.0" type="curve"/>
      <point x="1722.0" y="1430.0" type="line"/>
      <point x="1320.0" y="1430.0" type="line"/>
      <point x="1358.0" y="1660.0" type="line"/>
      <point x="1396.0" y="1899.0"/>
      <point x="1234.0" y="2094.0"/>
      <point x="994.0" y="2094.0" type="curve"/>
      <point x="755.0" y="2094.0"/>
      <point x="528.0" y="1900.0"/>
      <point x="488.0" y="1660.0" type="curve" smooth="yes"/>
      <point x="448.0" y="1420.0"/>
      <point x="611.0" y="1225.0"/>
      <point x="850.0" y="1226.0" type="curve"/>
      <point x="1082.0" y="1226.0" type="line"/>
      <point x="1016.0" y="824.0" type="line"/>
      <point x="784.0" y="824.0" type="line"/>
      <point x="544.0" y="823.0"/>
      <point x="317.0" y="628.0"/>
      <point x="278.0" y="388.0" type="curve" smooth="yes"/>
      <point x="239.0" y="150.0"/>
      <point x="400.0" y="-46.0"/>
    </contour>
    <contour>
      <point x="654.0" y="158.0" type="curve"/>
      <point x="526.0" y="158.0"/>
      <point x="463.0" y="273.0"/>
      <point x="482.0" y="388.0" type="curve" smooth="yes"/>
      <point x="505.0" y="527.0"/>
      <point x="642.0" y="620.0"/>
      <point x="770.0" y="620.0" type="curve"/>
      <point x="982.0" y="620.0" type="line"/>
      <point x="944.0" y="388.0" type="line"/>
      <point x="921.0" y="261.0"/>
      <point x="782.0" y="158.0"/>
    </contour>
    <contour>
      <point x="864.0" y="1430.0" type="line"/>
      <point x="736.0" y="1430.0"/>
      <point x="673.0" y="1545.0"/>
      <point x="692.0" y="1660.0" type="curve" smooth="yes"/>
      <point x="715.0" y="1801.0"/>
      <point x="852.0" y="1890.0"/>
      <point x="980.0" y="1890.0" type="curve"/>
      <point x="1108.0" y="1890.0"/>
      <point x="1174.0" y="1787.0"/>
      <point x="1154.0" y="1660.0" type="curve"/>
      <point x="1116.0" y="1430.0" type="line"/>
    </contour>
    <contour>
      <point x="1926.0" y="1430.0" type="line"/>
      <point x="1964.0" y="1660.0" type="line"/>
      <point x="1984.0" y="1787.0"/>
      <point x="2124.0" y="1890.0"/>
      <point x="2252.0" y="1890.0" type="curve"/>
      <point x="2378.0" y="1890.0"/>
      <point x="2443.0" y="1775.0"/>
      <point x="2424.0" y="1660.0" type="curve" smooth="yes"/>
      <point x="2401.0" y="1519.0"/>
      <point x="2262.0" y="1430.0"/>
      <point x="2136.0" y="1430.0" type="curve"/>
    </contour>
    <contour>
      <point x="1926.0" y="158.0" type="curve"/>
      <point x="1798.0" y="158.0"/>
      <point x="1731.0" y="261.0"/>
      <point x="1754.0" y="388.0" type="curve"/>
      <point x="1792.0" y="620.0" type="line"/>
      <point x="2042.0" y="620.0" type="line"/>
      <point x="2168.0" y="620.0"/>
      <point x="2233.0" y="503.0"/>
      <point x="2214.0" y="388.0" type="curve" smooth="yes"/>
      <point x="2191.0" y="249.0"/>
      <point x="2052.0" y="158.0"/>
    </contour>
    <contour>
      <point x="1220.0" y="824.0" type="line"/>
      <point x="1286.0" y="1226.0" type="line"/>
      <point x="1688.0" y="1226.0" type="line"/>
      <point x="1622.0" y="824.0" type="line"/>
    </contour>
  </outline>
</glyph>
<glyph name="option" format="2">
  <advance width="2880.0"/>
  <unicode hex="2325"/>
  <note>
stroke:
L: 32,32,50%
R: 108,110,50%
B: 208,200,50%
</note>
  <outline>
    <contour>
      <point x="1878.0" y="2048.0" type="line"/>
      <point x="1842.0" y="1828.0" type="line"/>
      <point x="2800.0" y="1828.0" type="line"/>
      <point x="2836.0" y="2048.0" type="line"/>
    </contour>
    <contour>
      <point x="432.0" y="1828.0" type="line"/>
      <point x="1088.0" y="1828.0" type="line"/>
      <point x="1708.0" y="0.0" type="line"/>
      <point x="2496.0" y="0.0" type="line"/>
      <point x="2534.0" y="220.0" type="line"/>
      <point x="1878.0" y="220.0" type="line"/>
      <point x="1256.0" y="2048.0" type="line"/>
      <point x="468.0" y="2048.0" type="line"/>
    </contour>
  </outline>
</glyph>
<glyph name="deleteright" format="2">
  <advance width="3424.0"/>
  <unicode hex="2326"/>
  <outline>
    <contour>
      <point x="128.0" y="0.0" type="line"/>
      <point x="2040.0" y="0.0" type="line"/>
      <point x="3228.0" y="1024.0" type="line"/>
      <point x="2380.0" y="2048.0" type="line"/>
      <point x="468.0" y="2048.0" type="line"/>
    </contour>
    <contour>
      <point x="956.0" y="424.0" type="line"/>
      <point x="2184.0" y="1476.0" type="line"/>
      <point x="2062.0" y="1624.0" type="line"/>
      <point x="834.0" y="572.0" type="line"/>
    </contour>
    <contour>
      <point x="1864.0" y="424.0" type="line"/>
      <point x="2034.0" y="572.0" type="line"/>
      <point x="1154.0" y="1624.0" type="line"/>
      <point x="984.0" y="1476.0" type="line"/>
    </contour>
    <contour>
      <point x="382.0" y="220.0" type="line"/>
      <point x="648.0" y="1828.0" type="line"/>
      <point x="2256.0" y="1828.0" type="line"/>
      <point x="2922.0" y="1024.0" type="line"/>
      <point x="1990.0" y="220.0" type="line"/>
    </contour>
  </outline>
</glyph>
<glyph name="clear" format="2">
  <advance width="2940.0"/>
  <unicode hex="2327"/>
  <note>
Based on deleteleft
</note>
  <outline>
    <contour>
      <point x="128.0" y="0.0" type="line"/>
      <point x="2556.0" y="0.0" type="line"/>
      <point x="2896.0" y="2048.0" type="line"/>
      <point x="468.0" y="2048.0" type="line"/>
    </contour>
    <contour>
      <point x="386.0" y="220.0" type="line"/>
      <point x="652.0" y="1828.0" type="line"/>
      <point x="2640.0" y="1828.0" type="line"/>
      <point x="2374.0" y="220.0" type="line"/>
    </contour>
    <contour>
      <point x="1868.0" y="424.0" type="line"/>
      <point x="2038.0" y="572.0" type="line"/>
      <point x="1158.0" y="1624.0" type="line"/>
      <point x="988.0" y="1476.0" type="line"/>
    </contour>
    <contour>
      <point x="960.0" y="424.0" type="line"/>
      <point x="2188.0" y="1476.0" type="line"/>
      <point x="2066.0" y="1624.0" type="line"/>
      <point x="838.0" y="572.0" type="line"/>
    </contour>
  </outline>
</glyph>
<glyph name="deleteleft" format="2">
  <advance width="3424.0"/>
  <unicode hex="232B"/>
  <note>
stroke:
L: 32
R outer: 108,110,100%
R x: 104,104,50%
B outer: 208,200,100%
B x: 200,200,50%
</note>
  <outline>
    <contour>
      <point x="1128.0" y="0.0" type="line"/>
      <point x="3040.0" y="0.0" type="line"/>
      <point x="3380.0" y="2048.0" type="line"/>
      <point x="1468.0" y="2048.0" type="line"/>
      <point x="280.0" y="1024.0" type="line"/>
    </contour>
    <contour>
      <point x="1254.0" y="220.0" type="line"/>
      <point x="588.0" y="1024.0" type="line"/>
      <point x="1520.0" y="1828.0" type="line"/>
      <point x="3128.0" y="1828.0" type="line"/>
      <point x="2862.0" y="220.0" type="line"/>
    </contour>
    <contour>
      <point x="2526.0" y="572.0" type="line"/>
      <point x="1646.0" y="1624.0" type="line"/>
      <point x="1476.0" y="1476.0" type="line"/>
      <point x="2356.0" y="424.0" type="line"/>
    </contour>
    <contour>
      <point x="1448.0" y="424.0" type="line"/>
      <point x="2676.0" y="1476.0" type="line"/>
      <point x="2554.0" y="1624.0" type="line"/>
      <point x="1326.0" y="572.0" type="line"/>
    </contour>
  </outline>
</glyph>
<glyph name="alternativekeysymbol" format="2">
  <advance width="2880.0"/>
  <unicode hex="2387"/>
  <note>
Mirror copy of option
</note>
  <outline>
    <contour>
      <point x="128.0" y="0.0" type="line"/>
      <point x="932.0" y="0.0" type="line"/>
      <point x="2144.0" y="1828.0" type="line"/>
      <point x="2800.0" y="1828.0" type="line"/>
      <point x="2836.0" y="2048.0" type="line"/>
      <point x="2032.0" y="2048.0" type="line"/>
      <point x="822.0" y="220.0" type="line"/>
      <point x="166.0" y="220.0" type="line"/>
    </contour>
    <contour>
      <point x="1538.0" y="0.0" type="line"/>
      <point x="2496.0" y="0.0" type="line"/>
      <point x="2534.0" y="220.0" type="line"/>
      <point x="1576.0" y="220.0" type="line"/>
    </contour>
  </outline>
</glyph>
<glyph name="brokenCircleNorthWestArrow" format="2">
  <advance width="2688.0"/>
  <unicode hex="238B"/>
  <note>
L: 32
R arrowhead: 108, 50%
R circle: 110, 100%
B: 208
</note>
  <outline>
    <contour>
      <point x="562.0" y="1830.0" type="line"/>
      <point x="1298.0" y="948.0" type="line"/>
      <point x="1474.0" y="1100.0" type="line"/>
      <point x="738.0" y="1982.0" type="line"/>
    </contour>
    <contour>
      <point x="416.0" y="1344.0" type="line"/>
      <point x="1236.0" y="2048.0" type="line"/>
      <point x="532.0" y="2048.0" type="line"/>
    </contour>
    <contour>
      <point x="1520.0" y="1828.0" type="line"/>
      <point x="1964.0" y="1828.0"/>
      <point x="2264.0" y="1470.0"/>
      <point x="2190.0" y="1024.0" type="curve" smooth="yes"/>
      <point x="2118.0" y="580.0"/>
      <point x="1698.0" y="220.0"/>
      <point x="1254.0" y="220.0" type="curve" smooth="yes"/>
      <point x="810.0" y="220.0"/>
      <point x="508.0" y="580.0"/>
      <point x="582.0" y="1024.0" type="curve"/>
      <point x="362.0" y="1024.0" type="line"/>
      <point x="268.0" y="458.0"/>
      <point x="652.0" y="0.0"/>
      <point x="1216.0" y="0.0" type="curve" smooth="yes"/>
      <point x="1784.0" y="0.0"/>
      <point x="2318.0" y="458.0"/>
      <point x="2410.0" y="1024.0" type="curve" smooth="yes"/>
      <point x="2504.0" y="1590.0"/>
      <point x="2122.0" y="2048.0"/>
      <point x="1556.0" y="2048.0" type="curve"/>
    </contour>
  </outline>
</glyph>
<glyph name="returnsymbol" format="2">
  <advance width="2774.0"/>
  <unicode hex="23CE"/>
  <outline>
    <contour>
      <point x="794.0" y="302.0" type="line"/>
      <point x="992.0" y="1490.0" type="line"/>
      <point x="300.0" y="896.0" type="line"/>
    </contour>
    <contour>
      <point x="694.0" y="788.0" type="line"/>
      <point x="2492.0" y="788.0" type="line"/>
      <point x="2528.0" y="1004.0" type="line"/>
      <point x="730.0" y="1004.0" type="line"/>
    </contour>
    <contour>
      <point x="2282.0" y="788.0" type="line"/>
      <point x="2498.0" y="788.0" type="line"/>
      <point x="2706.0" y="2048.0" type="line"/>
      <point x="2490.0" y="2048.0" type="line"/>
    </contour>
    <contour>
      <point x="1872.0" y="1832.0" type="line"/>
      <point x="2664.0" y="1832.0" type="line"/>
      <point x="2700.0" y="2048.0" type="line"/>
      <point x="1908.0" y="2048.0" type="line"/>
    </contour>
  </outline>
</glyph>
<glyph name="ejectsymbol" format="2">
  <advance width="2432.0"/>
  <unicode hex="23CF"/>
  <outline>
    <contour>
      <point x="112.0" y="308.0" type="line"/>
      <point x="2166.0" y="308.0" type="line"/>
      <point x="2232.0" y="704.0" type="line"/>
      <point x="178.0" y="704.0" type="line"/>
    </contour>
    <contour>
      <point x="226.0" y="1024.0" type="line"/>
      <point x="2290.0" y="1024.0" type="line"/>
      <point x="1432.0" y="2078.0" type="line"/>
    </contour>
  </outline>
</glyph>
<glyph name="circlewhite" format="2">
  <advance width="2576.0"/>
  <unicode hex="25CB"/>
  <guideline x="1932.0" y="1856.0" angle="0.0"/>
  <guideline x="560.0" y="936.0" angle="90.0"/>
  <guideline x="2232.0" y="948.0" angle="90.0"/>
  <guideline x="900.0" y="188.0" angle="0.0"/>
  <outline>
    <contour>
      <point x="1156.0" y="-32.0" type="curve" smooth="yes"/>
      <point x="1740.0" y="-32.0"/>
      <point x="2292.0" y="442.0"/>
      <point x="2386.0" y="1024.0" type="curve" smooth="yes"/>
      <point x="2480.0" y="1608.0"/>
      <point x="2090.0" y="2080.0"/>
      <point x="1506.0" y="2080.0" type="curve" smooth="yes"/>
      <point x="924.0" y="2080.0"/>
      <point x="372.0" y="1608.0"/>
      <point x="274.0" y="1024.0" type="curve" smooth="yes"/>
      <point x="176.0" y="442.0"/>
      <point x="574.0" y="-32.0"/>
    </contour>
    <contour>
      <point x="1194.0" y="200.0" type="curve" smooth="yes"/>
      <point x="738.0" y="200.0"/>
      <point x="430.0" y="572.0"/>
      <point x="506.0" y="1024.0" type="curve" smooth="yes"/>
      <point x="584.0" y="1478.0"/>
      <point x="1014.0" y="1848.0"/>
      <point x="1466.0" y="1848.0" type="curve" smooth="yes"/>
      <point x="1922.0" y="1848.0"/>
      <point x="2228.0" y="1480.0"/>
      <point x="2154.0" y="1024.0" type="curve" smooth="yes"/>
      <point x="2082.0" y="570.0"/>
      <point x="1650.0" y="200.0"/>
    </contour>
  </outline>
</glyph>
<glyph name="openbullet" format="2">
  <advance width="1280.0"/>
  <unicode hex="25E6"/>
  <guideline x="1104.0" y="816.0" angle="0.0"/>
  <outline>
    <contour>
      <point x="572.0" y="376.0" type="curve" smooth="yes"/>
      <point x="816.0" y="376.0"/>
      <point x="1048.0" y="572.0"/>
      <point x="1088.0" y="816.0" type="curve" smooth="yes"/>
      <point x="1128.0" y="1060.0"/>
      <point x="964.0" y="1256.0"/>
      <point x="720.0" y="1256.0" type="curve" smooth="yes"/>
      <point x="476.0" y="1256.0"/>
      <point x="248.0" y="1060.0"/>
      <point x="208.0" y="816.0" type="curve" smooth="yes"/>
      <point x="168.0" y="572.0"/>
      <point x="332.0" y="376.0"/>
    </contour>
    <contour>
      <point x="604.0" y="552.0" type="curve" smooth="yes"/>
      <point x="456.0" y="552.0"/>
      <point x="360.0" y="672.0"/>
      <point x="384.0" y="816.0" type="curve" smooth="yes"/>
      <point x="409.0" y="964.0"/>
      <point x="544.0" y="1080.0"/>
      <point x="692.0" y="1080.0" type="curve" smooth="yes"/>
      <point x="836.0" y="1080.0"/>
      <point x="936.0" y="964.0"/>
      <point x="912.0" y="816.0" type="curve" smooth="yes"/>
      <point x="889.0" y="672.0"/>
      <point x="748.0" y="552.0"/>
    </contour>
  </outline>
</glyph>
<glyph name="whitestar" format="2">
  <advance width="2944.0"/>
  <unicode hex="2606"/>
  <outline>
    <contour>
      <point x="1432.0" y="526.0" type="line"/>
      <point x="2098.0" y="-20.0" type="line"/>
      <point x="1946.0" y="868.0" type="line"/>
      <point x="2796.0" y="1416.0" type="line"/>
      <point x="1868.0" y="1416.0" type="line"/>
      <point x="1726.0" y="2304.0" type="line"/>
      <point x="1292.0" y="1416.0" type="line"/>
      <point x="364.0" y="1416.0" type="line"/>
      <point x="1030.0" y="868.0" type="line"/>
      <point x="586.0" y="-20.0" type="line"/>
    </contour>
    <contour>
      <point x="1472.0" y="774.0" type="line"/>
      <point x="1060.0" y="508.0" type="line"/>
      <point x="1280.0" y="944.0" type="line"/>
      <point x="948.0" y="1216.0" type="line"/>
      <point x="1404.0" y="1216.0" type="line"/>
      <point x="1620.0" y="1656.0" type="line"/>
      <point x="1690.0" y="1216.0" type="line"/>
      <point x="2144.0" y="1216.0" type="line"/>
      <point x="1724.0" y="944.0" type="line"/>
      <point x="1796.0" y="508.0" type="line"/>
    </contour>
  </outline>
</glyph>
<glyph name="sunWithRays" format="2">
  <advance width="3008.0"/>
  <unicode hex="263C"/>
  <outline>
    <contour>
      <point x="1470.0" y="572.0" type="curve" smooth="yes"/>
      <point x="1718.0" y="572.0"/>
      <point x="1958.0" y="776.0"/>
      <point x="1998.0" y="1024.0" type="curve" smooth="yes"/>
      <point x="2038.0" y="1272.0"/>
      <point x="1870.0" y="1476.0"/>
      <point x="1622.0" y="1476.0" type="curve" smooth="yes"/>
      <point x="1370.0" y="1476.0"/>
      <point x="1134.0" y="1272.0"/>
      <point x="1094.0" y="1024.0" type="curve" smooth="yes"/>
      <point x="1054.0" y="776.0"/>
      <point x="1222.0" y="572.0"/>
    </contour>
    <contour>
      <point x="1502.0" y="772.0" type="curve" smooth="yes"/>
      <point x="1366.0" y="772.0"/>
      <point x="1270.0" y="884.0"/>
      <point x="1294.0" y="1024.0" type="curve" smooth="yes"/>
      <point x="1318.0" y="1164.0"/>
      <point x="1450.0" y="1276.0"/>
      <point x="1586.0" y="1276.0" type="curve" smooth="yes"/>
      <point x="1726.0" y="1276.0"/>
      <point x="1822.0" y="1164.0"/>
      <point x="1798.0" y="1024.0" type="curve" smooth="yes"/>
      <point x="1774.0" y="884.0"/>
      <point x="1642.0" y="772.0"/>
    </contour>
    <contour>
      <point x="1558.0" y="1676.0" type="line"/>
      <point x="1750.0" y="1676.0" type="line"/>
      <point x="1850.0" y="2284.0" type="line"/>
      <point x="1658.0" y="2284.0" type="line"/>
    </contour>
    <contour>
      <point x="2138.0" y="1416.0" type="line"/>
      <point x="2642.0" y="1848.0" type="line"/>
      <point x="2530.0" y="1984.0" type="line"/>
      <point x="2026.0" y="1552.0" type="line"/>
    </contour>
    <contour>
      <point x="2182.0" y="928.0" type="line"/>
      <point x="2790.0" y="928.0" type="line"/>
      <point x="2822.0" y="1120.0" type="line"/>
      <point x="2214.0" y="1120.0" type="line"/>
    </contour>
    <contour>
      <point x="2210.0" y="64.0" type="line"/>
      <point x="2370.0" y="200.0" type="line"/>
      <point x="2010.0" y="632.0" type="line"/>
      <point x="1850.0" y="496.0" type="line"/>
    </contour>
    <contour>
      <point x="1242.0" y="-236.0" type="line"/>
      <point x="1434.0" y="-236.0" type="line"/>
      <point x="1534.0" y="372.0" type="line"/>
      <point x="1342.0" y="372.0" type="line"/>
    </contour>
    <contour>
      <point x="562.0" y="64.0" type="line"/>
      <point x="1066.0" y="496.0" type="line"/>
      <point x="954.0" y="632.0" type="line"/>
      <point x="450.0" y="200.0" type="line"/>
    </contour>
    <contour>
      <point x="270.0" y="928.0" type="line"/>
      <point x="878.0" y="928.0" type="line"/>
      <point x="910.0" y="1120.0" type="line"/>
      <point x="302.0" y="1120.0" type="line"/>
    </contour>
    <contour>
      <point x="1082.0" y="1416.0" type="line"/>
      <point x="1242.0" y="1552.0" type="line"/>
      <point x="882.0" y="1984.0" type="line"/>
      <point x="722.0" y="1848.0" type="line"/>
    </contour>
  </outline>
</glyph>
<glyph name="heartWhiteSuit" format="2">
  <advance width="2880.0"/>
  <unicode hex="2661"/>
  <outline>
    <contour>
      <point x="1308.0" y="-32.0" type="line"/>
      <point x="2506.0" y="996.0" type="line" smooth="yes"/>
      <point x="2792.0" y="1242.0"/>
      <point x="2858.0" y="1648.0"/>
      <point x="2654.0" y="1888.0" type="curve" smooth="yes"/>
      <point x="2445.0" y="2134.0"/>
      <point x="2053.0" y="2131.0"/>
      <point x="1762.0" y="1888.0" type="curve" smooth="yes"/>
      <point x="1604.0" y="1756.0" type="line"/>
      <point x="1490.0" y="1888.0" type="line" smooth="yes"/>
      <point x="1279.0" y="2132.0"/>
      <point x="888.0" y="2134.0"/>
      <point x="598.0" y="1888.0" type="curve" smooth="yes"/>
      <point x="314.0" y="1647.0"/>
      <point x="244.0" y="1242.0"/>
      <point x="450.0" y="996.0" type="curve" smooth="yes"/>
    </contour>
    <contour>
      <point x="1334.0" y="280.0" type="line"/>
      <point x="619.0" y="1137.0" type="line" smooth="yes"/>
      <point x="494.0" y="1286.0"/>
      <point x="546.0" y="1555.0"/>
      <point x="740.0" y="1720.0" type="curve" smooth="yes"/>
      <point x="939.0" y="1888.0"/>
      <point x="1194.0" y="1894.0"/>
      <point x="1324.0" y="1744.0" type="curve" smooth="yes"/>
      <point x="1579.0" y="1448.0" type="line"/>
      <point x="1903.0" y="1719.0" type="line" smooth="yes"/>
      <point x="2105.0" y="1888.0"/>
      <point x="2360.0" y="1894.0"/>
      <point x="2486.0" y="1746.0" type="curve" smooth="yes"/>
      <point x="2609.0" y="1601.0"/>
      <point x="2557.0" y="1330.0"/>
      <point x="2363.0" y="1163.0" type="curve" smooth="yes"/>
    </contour>
  </outline>
</glyph>
<glyph name="leftLongArrow" format="2">
  <advance width="3776.0"/>
  <unicode hex="27F5"/>
  <guideline x="316.0" y="896.0" angle="0.0"/>
  <guideline x="748.0" y="1008.0" angle="90.0"/>
  <outline>
    <contour>
      <point x="1046.0" y="0.0" type="line"/>
      <point x="1212.0" y="138.0" type="line"/>
      <point x="672.0" y="786.0" type="line"/>
      <point x="3424.0" y="786.0" type="line"/>
      <point x="3462.0" y="1006.0" type="line"/>
      <point x="758.0" y="1006.0" type="line"/>
      <point x="1486.0" y="1628.0" type="line"/>
      <point x="1344.0" y="1792.0" type="line"/>
      <point x="298.0" y="896.0" type="line"/>
    </contour>
  </outline>
</glyph>
<glyph name="rightLongArrow" format="2">
  <advance width="3776.0"/>
  <unicode hex="27F6"/>
  <guideline x="272.0" y="896.0" angle="0.0"/>
  <guideline x="668.0" y="1008.0" angle="90.0"/>
  <outline>
    <contour>
      <point x="2474.0" y="0.0" type="line"/>
      <point x="3520.0" y="896.0" type="line"/>
      <point x="2772.0" y="1792.0" type="line"/>
      <point x="2606.0" y="1654.0" type="line"/>
      <point x="3146.0" y="1006.0" type="line"/>
      <point x="394.0" y="1006.0" type="line"/>
      <point x="356.0" y="786.0" type="line"/>
      <point x="3060.0" y="786.0" type="line"/>
      <point x="2332.0" y="164.0" type="line"/>
    </contour>
  </outline>
</glyph>
<glyph name="leftRightLongArrow" format="2">
  <advance width="4928.0"/>
  <unicode hex="27F7"/>
  <outline>
    <contour>
      <point x="1046.0" y="0.0" type="line"/>
      <point x="1212.0" y="138.0" type="line"/>
      <point x="672.0" y="786.0" type="line"/>
      <point x="4212.0" y="786.0" type="line"/>
      <point x="3484.0" y="164.0" type="line"/>
      <point x="3626.0" y="0.0" type="line"/>
      <point x="4672.0" y="896.0" type="line"/>
      <point x="3924.0" y="1792.0" type="line"/>
      <point x="3758.0" y="1654.0" type="line"/>
      <point x="4298.0" y="1006.0" type="line"/>
      <point x="758.0" y="1006.0" type="line"/>
      <point x="1486.0" y="1628.0" type="line"/>
      <point x="1344.0" y="1792.0" type="line"/>
      <point x="298.0" y="896.0" type="line"/>
    </contour>
  </outline>
</glyph>
<glyph name="upBlackArrow" format="2">
  <advance width="2880.0"/>
  <unicode hex="2B06"/>
  <outline>
    <contour>
      <point x="298.0" y="1024.0" type="line"/>
      <point x="906.0" y="1024.0" type="line"/>
      <point x="736.0" y="0.0" type="line"/>
      <point x="1888.0" y="0.0" type="line"/>
      <point x="2058.0" y="1024.0" type="line"/>
      <point x="2666.0" y="1024.0" type="line"/>
      <point x="1678.0" y="2208.0" type="line"/>
    </contour>
  </outline>
</glyph>
<glyph name="G.1" format="2">
  <advance width="2112.0"/>
  <unicode hex="E002"/>
  <outline>
    <contour>
      <point x="950.0" y="-28.0" type="curve" smooth="yes"/>
      <point x="1221.0" y="-28.0"/>
      <point x="1418.0" y="71.0"/>
      <point x="1604.0" y="250.0" type="curve"/>
      <point x="1614.0" y="250.0" type="line"/>
      <point x="1602.0" y="0.0" type="line"/>
      <point x="1810.0" y="0.0" type="line"/>
      <point x="1980.0" y="1024.0" type="line"/>
      <point x="1180.0" y="1024.0" type="line"/>
      <point x="1144.0" y="804.0" type="line"/>
      <point x="1736.0" y="804.0" type="line"/>
      <point x="1708.0" y="830.0" type="line"/>
      <point x="1647.0" y="465.0"/>
      <point x="1333.0" y="204.0"/>
      <point x="968.0" y="204.0" type="curve" smooth="yes"/>
      <point x="588.0" y="204.0"/>
      <point x="364.0" y="492.0"/>
      <point x="452.0" y="1024.0" type="curve" smooth="yes"/>
      <point x="540.0" y="1556.0"/>
      <point x="908.0" y="1844.0"/>
      <point x="1272.0" y="1844.0" type="curve" smooth="yes"/>
      <point x="1567.0" y="1844.0"/>
      <point x="1738.0" y="1678.0"/>
      <point x="1776.0" y="1408.0" type="curve"/>
      <point x="2032.0" y="1408.0" type="line"/>
      <point x="2021.0" y="1804.0"/>
      <point x="1722.0" y="2076.0"/>
      <point x="1290.0" y="2076.0" type="curve" smooth="yes"/>
      <point x="766.0" y="2076.0"/>
      <point x="319.0" y="1672.0"/>
      <point x="212.0" y="1024.0" type="curve" smooth="yes"/>
      <point x="105.0" y="376.0"/>
      <point x="406.0" y="-28.0"/>
    </contour>
  </outline>
</glyph>
<glyph name="Ghook.1" format="2">
  <advance width="2176.0"/>
  <unicode hex="E004"/>
  <outline>
    <contour>
      <point x="2032.0" y="1408.0" type="line"/>
      <point x="2068.0" y="1624.0" type="line" smooth="yes"/>
      <point x="2095.0" y="1784.0"/>
      <point x="2198.0" y="1832.0"/>
      <point x="2328.0" y="1832.0" type="curve" smooth="yes"/>
      <point x="2354.0" y="1832.0"/>
      <point x="2382.0" y="1828.0"/>
      <point x="2400.0" y="1824.0" type="curve"/>
      <point x="2432.0" y="2024.0" type="line"/>
      <point x="2400.0" y="2036.0"/>
      <point x="2348.0" y="2036.0"/>
      <point x="2300.0" y="2036.0" type="curve" smooth="yes"/>
      <point x="2044.0" y="2036.0"/>
      <point x="1887.0" y="1888.0"/>
      <point x="1828.0" y="1624.0" type="curve" smooth="yes"/>
      <point x="1780.0" y="1408.0" type="line"/>
    </contour>
    <component base="G.1"/>
  </outline>
</glyph>
<glyph name="bracketright.sups" format="2">
  <advance width="712.0"/>
  <unicode hex="E0A8"/>
  <outline>
    <contour>
      <point x="36.0" y="736.0" type="line"/>
      <point x="502.0" y="736.0" type="line"/>
      <point x="782.0" y="2428.0" type="line"/>
      <point x="316.0" y="2428.0" type="line"/>
      <point x="284.0" y="2232.0" type="line"/>
      <point x="526.0" y="2232.0" type="line"/>
      <point x="310.0" y="932.0" type="line"/>
      <point x="68.0" y="932.0" type="line"/>
    </contour>
  </outline>
</glyph>
<glyph name="commaaccent" format="2">
  <unicode hex="F6C3"/>
  <outline>
    <contour>
      <point x="-90.0" y="-680.0" type="line"/>
      <point x="94.0" y="-680.0" type="line"/>
      <point x="350.0" y="-162.0" type="line"/>
      <point x="108.0" y="-162.0" type="line"/>
    </contour>
  </outline>
</glyph>
<glyph name="uni1F16A" format="2">
  <advance width="1762.0"/>
  <unicode hex="1F16A"/>
  <outline>
    <contour>
      <point x="568.0" y="1312.0" type="line"/>
      <point x="636.0" y="1312.0" type="line"/>
      <point x="1084.0" y="2048.0" type="line"/>
      <point x="952.0" y="2048.0" type="line"/>
      <point x="634.0" y="1508.0" type="line"/>
      <point x="496.0" y="2048.0" type="line"/>
      <point x="364.0" y="2048.0" type="line"/>
    </contour>
    <contour>
      <point x="218.0" y="1312.0" type="line"/>
      <point x="346.0" y="1312.0" type="line"/>
      <point x="468.0" y="2048.0" type="line"/>
      <point x="340.0" y="2048.0" type="line"/>
    </contour>
    <contour>
      <point x="858.0" y="1312.0" type="line"/>
      <point x="986.0" y="1312.0" type="line"/>
      <point x="1108.0" y="2048.0" type="line"/>
      <point x="980.0" y="2048.0" type="line"/>
    </contour>
    <contour>
      <point x="1426.0" y="1306.0" type="curve" smooth="yes"/>
      <point x="1612.0" y="1306.0"/>
      <point x="1726.0" y="1398.0"/>
      <point x="1778.0" y="1556.0" type="curve"/>
      <point x="1650.0" y="1556.0" type="line"/>
      <point x="1610.0" y="1466.0"/>
      <point x="1544.0" y="1422.0"/>
      <point x="1446.0" y="1422.0" type="curve" smooth="yes"/>
      <point x="1302.0" y="1422.0"/>
      <point x="1244.0" y="1512.0"/>
      <point x="1274.0" y="1684.0" type="curve" smooth="yes"/>
      <point x="1304.0" y="1854.0"/>
      <point x="1386.0" y="1938.0"/>
      <point x="1526.0" y="1938.0" type="curve" smooth="yes"/>
      <point x="1630.0" y="1938.0"/>
      <point x="1684.0" y="1890.0"/>
      <point x="1690.0" y="1792.0" type="curve"/>
      <point x="1820.0" y="1792.0" type="line"/>
      <point x="1828.0" y="1958.0"/>
      <point x="1734.0" y="2052.0"/>
      <point x="1542.0" y="2052.0" type="curve" smooth="yes"/>
      <point x="1324.0" y="2052.0"/>
      <point x="1184.0" y="1926.0"/>
      <point x="1142.0" y="1678.0" type="curve" smooth="yes"/>
      <point x="1100.0" y="1432.0"/>
      <point x="1210.0" y="1306.0"/>
    </contour>
  </outline>
</glyph>
<glyph name="uni1F16B" format="2">
  <advance width="1720.0"/>
  <unicode hex="1F16B"/>
  <outline>
    <contour>
      <point x="568.0" y="1312.0" type="line"/>
      <point x="636.0" y="1312.0" type="line"/>
      <point x="1084.0" y="2048.0" type="line"/>
      <point x="952.0" y="2048.0" type="line"/>
      <point x="634.0" y="1508.0" type="line"/>
      <point x="496.0" y="2048.0" type="line"/>
      <point x="364.0" y="2048.0" type="line"/>
    </contour>
    <contour>
      <point x="218.0" y="1312.0" type="line"/>
      <point x="346.0" y="1312.0" type="line"/>
      <point x="468.0" y="2048.0" type="line"/>
      <point x="340.0" y="2048.0" type="line"/>
    </contour>
    <contour>
      <point x="858.0" y="1312.0" type="line"/>
      <point x="986.0" y="1312.0" type="line"/>
      <point x="1108.0" y="2048.0" type="line"/>
      <point x="980.0" y="2048.0" type="line"/>
    </contour>
    <contour>
      <point x="1114.0" y="1312.0" type="line"/>
      <point x="1242.0" y="1312.0" type="line"/>
      <point x="1364.0" y="2048.0" type="line"/>
      <point x="1236.0" y="2048.0" type="line"/>
    </contour>
    <contour>
      <point x="1170.0" y="1312.0" type="line"/>
      <point x="1382.0" y="1312.0" type="line"/>
      <point x="1558.0" y="1312.0"/>
      <point x="1717.0" y="1436.0"/>
      <point x="1748.0" y="1616.0" type="curve" smooth="yes"/>
      <point x="1770.0" y="1744.0" type="line" smooth="yes"/>
      <point x="1801.0" y="1924.0"/>
      <point x="1680.0" y="2048.0"/>
      <point x="1504.0" y="2048.0" type="curve" smooth="yes"/>
      <point x="1288.0" y="2048.0" type="line"/>
      <point x="1268.0" y="1936.0" type="line"/>
      <point x="1484.0" y="1936.0" type="line" smooth="yes"/>
      <point x="1592.0" y="1936.0"/>
      <point x="1662.0" y="1860.0"/>
      <point x="1642.0" y="1744.0" type="curve" smooth="yes"/>
      <point x="1620.0" y="1616.0" type="line" smooth="yes"/>
      <point x="1600.0" y="1500.0"/>
      <point x="1508.0" y="1424.0"/>
      <point x="1400.0" y="1424.0" type="curve" smooth="yes"/>
      <point x="1188.0" y="1424.0" type="line"/>
    </contour>
  </outline>
</glyph>
<glyph name="a.1" format="2">
  <advance width="1752.0"/>
  <note>
Based on /d
</note>
  <outline>
    <contour>
      <point x="668.0" y="-32.0" type="curve" smooth="yes"/>
      <point x="964.0" y="-32.0"/>
      <point x="1094.0" y="152.0"/>
      <point x="1160.0" y="236.0" type="curve"/>
      <point x="1188.0" y="236.0" type="line"/>
      <point x="1148.0" y="0.0" type="line"/>
      <point x="1376.0" y="0.0" type="line"/>
      <point x="1632.0" y="1536.0" type="line"/>
      <point x="1394.0" y="1536.0" type="line"/>
      <point x="1354.0" y="1292.0" type="line"/>
      <point x="1334.0" y="1292.0" type="line"/>
      <point x="1296.0" y="1372.0"/>
      <point x="1234.0" y="1556.0"/>
      <point x="934.0" y="1556.0" type="curve" smooth="yes"/>
      <point x="546.0" y="1556.0"/>
      <point x="228.0" y="1248.0"/>
      <point x="146.0" y="764.0" type="curve" smooth="yes"/>
      <point x="66.0" y="276.0"/>
      <point x="284.0" y="-32.0"/>
    </contour>
    <contour>
      <point x="726.0" y="180.0" type="curve" smooth="yes"/>
      <point x="430.0" y="180.0"/>
      <point x="330.0" y="440.0"/>
      <point x="384.0" y="768.0" type="curve" smooth="yes"/>
      <point x="438.0" y="1092.0"/>
      <point x="620.0" y="1344.0"/>
      <point x="918.0" y="1344.0" type="curve" smooth="yes"/>
      <point x="1208.0" y="1344.0"/>
      <point x="1330.0" y="1112.0"/>
      <point x="1272.0" y="768.0" type="curve" smooth="yes"/>
      <point x="1214.0" y="420.0"/>
      <point x="1010.0" y="180.0"/>
    </contour>
  </outline>
</glyph>
<glyph name="macrongravecomb.cn" format="2">
  <guideline x="-286.0" y="2174.0" angle="260.6"/>
  <outline>
    <contour>
      <point x="-318.0" y="2640.0" type="line"/>
      <point x="-74.0" y="2640.0" type="line"/>
      <point x="-324.0" y="2944.0" type="line"/>
      <point x="-608.0" y="2944.0" type="line"/>
    </contour>
    <component base="macron" xOffset="-1078.0" yOffset="456.0"/>
  </outline>
</glyph>
<glyph name="one.ss01" format="2">
  <advance width="1244.0"/>
  <outline>
    <contour>
      <point x="1080.0" y="2048.0" type="line"/>
      <point x="860.0" y="2048.0" type="line"/>
      <point x="830.0" y="2024.0"/>
      <point x="650.0" y="1744.0"/>
      <point x="332.0" y="1744.0" type="curve"/>
      <point x="300.0" y="1536.0" type="line"/>
      <point x="534.0" y="1536.0"/>
      <point x="718.0" y="1632.0"/>
      <point x="756.0" y="1688.0" type="curve"/>
      <point x="772.0" y="1688.0" type="line"/>
      <point x="492.0" y="0.0" type="line"/>
      <point x="740.0" y="0.0" type="line"/>
    </contour>
  </outline>
</glyph>
